<?xml version="1.0" encoding="UTF-8" standalone="no"?>
<svg width="13px" height="13px" viewBox="0 0 13 13" version="1.1" xmlns="http://www.w3.org/2000/svg" xmlns:xlink="http://www.w3.org/1999/xlink">
    <!-- Generator: Sketch 40.3 (33839) - http://www.bohemiancoding.com/sketch -->
    <title>Fill 1 Copy</title>
    <desc>Created with Sketch.</desc>
    <defs></defs>
    <g id="Page-1" stroke="none" stroke-width="1" fill="none" fill-rule="evenodd">
        <g id="Desktop-HD" fill="#577083">
            <path d="M2.96885408,8.29452239 C1.5084166,6.82879347 1.5084166,4.44510483 2.96885408,2.97937591 C3.67566838,2.27000069 4.61652714,1.87913965 5.61636511,1.87913965 C6.61713926,1.87913965 7.55706184,2.27000069 8.26481231,2.97937591 C9.72431362,4.44510483 9.72431362,6.82879347 8.26481231,8.29452239 C7.55706184,9.00389761 6.61713926,9.39569823 5.61636511,9.39569823 C4.61652714,9.39569823 3.67566838,9.00389761 2.96885408,8.29452239 L2.96885408,8.29452239 Z M13,11.2607443 L10.3253398,8.70605398 C11.7427131,6.52061457 11.4993069,3.56754662 9.58856783,1.65082418 C8.49230354,0.549648346 7.05433432,0 5.61636511,0 C4.17933207,0 2.74136286,0.549648346 1.64509857,1.65082418 C-0.54836619,3.85223627 -0.54836619,7.42166203 1.64509857,9.62307412 C2.74136286,10.72425 4.17933207,11.2748379 5.61636511,11.2748379 C6.83058781,11.2748379 8.03170402,10.8576689 9.04090377,10.0721885 L11.7090107,12.6212414 L13,11.2607443 Z" id="Fill-1-Copy"></path>
        </g>
    </g>
</svg>
