<?xml version="1.0" encoding="utf-8"?>
<!-- Generator: Adobe Illustrator 18.1.1, SVG Export Plug-In . SVG Version: 6.00 Build 0)  -->
<svg width="8px" height="8px" viewBox="0 0 58 32">
	<path d="M51.2 6.4c0 0 0 6.4 0 6.4s-6.4 0-6.4 0c0 0 0 6.4 0 6.4s-6.4 0-6.4 0c0 0 0 6.4 0 6.4s-6.4 0-6.4 0c0 0 0 6.4 0 6.4s-6.4 0-6.4 0c0 0 0-6.4 0-6.4s-6.4 0-6.4 0c0 0 0-6.4 0-6.4s-6.4 0-6.4 0c0 0 0-6.4 0-6.4s-6.4 0-6.4 0c0 0 0-6.4 0-6.4s-6.4 0-6.4 0c0 0 0-6.4 0-6.4s6.4 0 6.4 0c0 0 6.4 0 6.4 0s0 6.4 0 6.4c0 0 6.4 0 6.4 0s0 6.4 0 6.4c0 0 6.4 0 6.4 0s0 6.4 0 6.4c0 0 6.4 0 6.4 0s0-6.4 0-6.4c0 0 6.4 0 6.4 0s0-6.4 0-6.4c0 0 6.4 0 6.4 0s0-6.4 0-6.4c0 0 6.4 0 6.4 0s6.4 0 6.4 0c0 0 0 6.4 0 6.4s-6.4 0-6.4 0z"/>
</svg>
