<?xml version="1.0" encoding="utf-8"?>
<svg version="1.1" xmlns="http://www.w3.org/2000/svg" xmlns:xlink="http://www.w3.org/1999/xlink" x="0px" y="0px" viewBox="0 0 30 30" width="30px" height="30px" xml:space="preserve">
<path d="M11,15h4c0.6,0,2,0,2-2c0-1.9-1.2-2-2-2h-4V15z M11,17v4h5c1.1,0,2-0.5,2-2s-0.9-2-2-2H11z M11,23
	c-0.5,0-2,0-2,0s0-1.4,0-2V11c0-0.5,0-2,0-2s1.4,0,2,0h3.9c1.5,0,2.6,0.6,3.4,1.8c0.8,1.2,0.9,2.8,0.2,4.1c-0.1,0.3-0.3,0.5-0.5,0.7
	c1.1,0.6,1.9,1.7,2,2.9c0.1,1.2-0.2,2.2-1,3.1c-0.8,0.9-2,1.4-3.2,1.4H11z"/>
</svg>
