<?xml version="1.0" encoding="UTF-8"?>
<svg width="11px" height="14px" viewBox="0 0 11 14" version="1.1" xmlns="http://www.w3.org/2000/svg" xmlns:xlink="http://www.w3.org/1999/xlink">
    <!-- Generator: sketchtool 42 (36781) - http://www.bohemiancoding.com/sketch -->
    <title>3F05E648-95BC-4355-8258-CB94253968FF</title>
    <desc>Created with sketchtool.</desc>
    <defs></defs>
    <g id="Symbols" stroke="none" stroke-width="1" fill="none" fill-rule="evenodd">
        <g id="03-Inputs-/-02-Text-Area-/-02-Rich-Text" transform="translate(-22.000000, -45.000000)" fill="#577083">
            <g id="Rich-Text-Editor" transform="translate(0.000000, 30.000000)">
                <g id="Actions">
                    <path d="M24.0019279,21 L28.0087866,21 C28.6353901,21 30.0217252,21 30.0217252,19 C30.0217252,17.062 28.7975462,17 28.0087866,17 L24.0019279,17 L24.0019279,21 Z M24.0019279,23 L24.0019279,27 L29.0147554,27 C30.0697714,27 31.0286949,26.531 31.0286949,25 C31.0286949,23.469 30.1228225,23 29.0147554,23 L24.0019279,23 Z M24.0019279,29 C23.4913833,29 22,29 22,29 C22,29 22,27.594947 22,27 L22,17 C22,16.4624726 22,15 22,15 C22,15 23.4339083,15 24.0019279,15 L27.915697,15 C29.3981246,15 30.5622457,15.639 31.3219774,16.792 C32.1387639,18.034 32.2078305,19.618 31.4901393,20.938 C31.3419966,21.208 31.1728337,21.45 30.9776458,21.674 C32.0566849,22.25 32.858457,23.367 32.9785727,24.573 C33.0936836,25.724 32.7423452,26.812 31.9886193,27.639 C31.1998597,28.504 30.0337367,29 28.7885376,29 L24.0019279,29 Z" id="Icon-Bold"></path>
                </g>
            </g>
        </g>
    </g>
</svg>