<?xml version="1.0" encoding="UTF-8" standalone="no"?>
<svg width="16px" height="14px" viewBox="0 0 16 14" version="1.1" xmlns="http://www.w3.org/2000/svg" xmlns:xlink="http://www.w3.org/1999/xlink">
    <g id="Symbols" stroke="none" stroke-width="1" fill="none" fill-rule="evenodd">
        <g id="05-Tooltips-/-04-Big-Menu-02-app" transform="translate(-24.000000, -237.000000)" fill="#20455E">
            <g id="json" transform="translate(24.000000, 237.000000)">
                <path d="M15,3 L1,3 L1,1.5 C1,1.224 1.225,1 1.5,1 L14.5,1 C14.775,1 15,1.224 15,1.5 L15,3 Z M15,12.5 C15,12.776 14.775,13 14.5,13 L1.5,13 C1.225,13 1,12.776 1,12.5 L1,4 L15,4 L15,12.5 Z M14.5,0 L1.5,0 C0.673,0 0,0.673 0,1.5 L0,12.5 C0,13.327 0.673,14 1.5,14 L14.5,14 C15.327,14 16,13.327 16,12.5 L16,1.5 C16,0.673 15.327,0 14.5,0 L14.5,0 Z" id="Fill-1"></path>
                <path d="M11.7119,8.4644 L9.6369,10.6564 C9.4469,10.8574 9.4559,11.1734 9.6559,11.3634 C9.7529,11.4544 9.8769,11.5004 9.9999,11.5004 C10.1329,11.5004 10.2649,11.4474 10.3629,11.3434 L13.1009,8.4524 L10.3579,5.6504 C10.1659,5.4534 9.8469,5.4494 9.6499,5.6424 C9.4529,5.8364 9.4489,6.1524 9.6429,6.3494 L11.7119,8.4644 Z" id="Fill-3"></path>
                <path d="M6,11.5 C6.125,11.5 6.25,11.454 6.347,11.36 C6.546,11.169 6.552,10.852 6.36,10.653 L4.288,8.5 L6.36,6.347 C6.552,6.148 6.546,5.831 6.347,5.64 C6.149,5.449 5.833,5.454 5.64,5.653 L2.899,8.5 L5.64,11.347 C5.738,11.449 5.869,11.5 6,11.5" id="Fill-5"></path>
            </g>
        </g>
    </g>
</svg>