<?xml version="1.0" encoding="utf-8"?>
<!-- Generator: Adobe Illustrator 18.0.0, SVG Export Plug-In . SVG Version: 6.00 Build 0)  -->
<!DOCTYPE svg PUBLIC "-//W3C//DTD SVG 1.1//EN" "http://www.w3.org/Graphics/SVG/1.1/DTD/svg11.dtd">
<svg version="1.1" id="Layer_1" xmlns="http://www.w3.org/2000/svg" xmlns:xlink="http://www.w3.org/1999/xlink" x="0px" y="0px"
	 viewBox="0 0 39.6 75.7" enable-background="new 0 0 39.6 75.7" xml:space="preserve">
<g>
	<defs>
		<rect id="SVGID_1_" y="0" width="39.6" height="75.7"/>
	</defs>
	<clipPath id="SVGID_2_">
		<use xlink:href="#SVGID_1_"  overflow="visible"/>
	</clipPath>

		<line clip-path="url(#SVGID_2_)" fill="none" stroke="#555555" stroke-width="3" stroke-linejoin="round" stroke-miterlimit="10" x1="19.9" y1="13.2" x2="19.9" y2="0"/>
</g>
<line fill="none" stroke="#555555" stroke-width="3" stroke-linejoin="round" stroke-miterlimit="10" x1="28.8" y1="14.3" x2="32.2" y2="8.3"/>
<line fill="none" stroke="#555555" stroke-width="3" stroke-linejoin="round" stroke-miterlimit="10" x1="11" y1="14.3" x2="7.6" y2="8.3"/>
<g>
	<defs>
		<rect id="SVGID_3_" y="0" width="39.6" height="75.7"/>
	</defs>
	<clipPath id="SVGID_4_">
		<use xlink:href="#SVGID_3_"  overflow="visible"/>
	</clipPath>
	<path clip-path="url(#SVGID_4_)" fill="none" stroke="#555555" stroke-linejoin="round" stroke-miterlimit="10" d="M28.2,35
		c1,1,1.1,2.5,0,3.6c-1.4,1.4-4.5,0.9-4.5,0.9s-0.5-3.1,0.9-4.5C25.7,33.9,27.2,34,28.2,35z"/>
	<path clip-path="url(#SVGID_4_)" fill="none" stroke="#555555" stroke-linejoin="round" stroke-miterlimit="10" d="M11.6,35
		c-1,1-1.1,2.5,0,3.6c1.4,1.4,4.5,0.9,4.5,0.9s0.5-3.1-0.9-4.5C14.1,33.9,12.6,34,11.6,35z"/>
	<line clip-path="url(#SVGID_4_)" fill="none" stroke="#555555" stroke-miterlimit="10" x1="10.1" y1="60.9" x2="29" y2="60.9"/>
	<line clip-path="url(#SVGID_4_)" fill="none" stroke="#555555" stroke-miterlimit="10" x1="10.1" y1="64.8" x2="29" y2="64.8"/>
	<line clip-path="url(#SVGID_4_)" fill="none" stroke="#555555" stroke-miterlimit="10" x1="10.1" y1="68.8" x2="29" y2="68.8"/>

		<path clip-path="url(#SVGID_4_)" fill="none" stroke="#555555" stroke-width="3" stroke-linejoin="round" stroke-miterlimit="10" d="
		M19.8,74.2c1.6,0,6.1-2.2,8.6-3.5c0.5-0.3,0.8-0.8,0.8-1.4v-8.4c0-7,8.9-11.3,8.9-23.4c0-10.1-8.2-18.3-18.3-18.3
		S1.5,27.4,1.5,37.5c0,12.2,8.9,16.4,8.9,23.4v8.4c0,0.6,0.3,1.1,0.8,1.4C13.7,72,18.2,74.2,19.8,74.2z"/>

		<line clip-path="url(#SVGID_4_)" fill="none" stroke="#555555" stroke-linejoin="round" stroke-miterlimit="10" x1="17.8" y1="60.9" x2="16" y2="39.5"/>

		<line clip-path="url(#SVGID_4_)" fill="none" stroke="#555555" stroke-linejoin="round" stroke-miterlimit="10" x1="22" y1="60.9" x2="23.8" y2="39.5"/>

		<line clip-path="url(#SVGID_4_)" fill="none" stroke="#555555" stroke-linejoin="round" stroke-miterlimit="10" x1="23.8" y1="39.5" x2="16" y2="39.5"/>
</g>
</svg>
