<?xml version="1.0" encoding="UTF-8" standalone="no"?>
<svg width="15px" height="14px" viewBox="0 0 15 14" version="1.1" xmlns="http://www.w3.org/2000/svg" xmlns:xlink="http://www.w3.org/1999/xlink" xmlns:sketch="http://www.bohemiancoding.com/sketch/ns">
    <!-- Generator: Sketch 3.3.2 (12043) - http://www.bohemiancoding.com/sketch -->
    <title>chat</title>
    <desc>Created with Sketch.</desc>
    <defs></defs>
    <g id="Page-1" stroke="none" stroke-width="1" fill="none" fill-rule="evenodd" sketch:type="MSPage">
        <g id="chat" sketch:type="MSArtboardGroup" fill="#555555">
            <g id="Imported-Layers" sketch:type="MSLayerGroup">
                <path d="M0,0 L0,11 L4,11 L4,14 L5,14 L9,11 L15,11 L15,0 L0,0 L0,0 Z M14,10 L9,10 L5,13 L5,10 L1,10 L1,1 L14,1 L14,10 L14,10 Z" id="Fill-1" sketch:type="MSShapeGroup"></path>
                <path d="M4,3 L11,3 L11,4 L4,4 L4,3 Z" id="Fill-2" sketch:type="MSShapeGroup"></path>
                <path d="M4,5 L11,5 L11,6 L4,6 L4,5 Z" id="Fill-3" sketch:type="MSShapeGroup"></path>
                <path d="M4,7 L11,7 L11,8 L4,8 L4,7 Z" id="Fill-4" sketch:type="MSShapeGroup"></path>
            </g>
        </g>
    </g>
</svg>