<svg xmlns="http://www.w3.org/2000/svg" xmlns:xlink="http://www.w3.org/1999/xlink" preserveAspectRatio="xMidYMid" width="11" height="11" viewBox="0 0 11 11">
  <defs>
    <filter id="color-overlay-1" filterUnits="userSpaceOnUse">
      <feFlood flood-color="#363636" flood-opacity="1"/>
      <feComposite operator="in" in2="SourceGraphic"/>
      <feBlend mode="normal" in2="SourceGraphic" result="colorOverlay"/>
    </filter>
  </defs>
  <path d="M6.613,5.492 C6.613,5.492 10.883,9.762 10.883,9.762 C11.037,9.916 11.037,10.167 10.883,10.322 C10.883,10.322 10.323,10.882 10.323,10.882 C10.168,11.036 9.918,11.036 9.763,10.882 C9.763,10.882 5.494,6.612 5.494,6.612 C5.494,6.612 1.224,10.882 1.224,10.882 C1.069,11.036 0.819,11.036 0.664,10.882 C0.664,10.882 0.104,10.322 0.104,10.322 C-0.050,10.167 -0.050,9.916 0.104,9.762 C0.104,9.762 4.374,5.492 4.374,5.492 C4.374,5.492 0.104,1.223 0.104,1.223 C-0.050,1.068 -0.050,0.818 0.104,0.663 C0.104,0.663 0.664,0.103 0.664,0.103 C0.819,-0.051 1.069,-0.051 1.224,0.103 C1.224,0.103 5.494,4.373 5.494,4.373 C5.494,4.373 9.763,0.103 9.763,0.103 C9.918,-0.051 10.168,-0.051 10.323,0.103 C10.323,0.103 10.883,0.663 10.883,0.663 C11.037,0.818 11.037,1.068 10.883,1.223 C10.883,1.223 6.613,5.492 6.613,5.492 Z" id="path-1" fill-rule="evenodd"/>
</svg>
