<svg xmlns="http://www.w3.org/2000/svg" width="24" height="24" viewBox="0 0 24 24">
    <path d="M14.7250007,4.22754039 C14.8946418,4.27944626 15.0226598,4.38129094 15.1053159,4.52750822 C15.1903093,4.67780723 15.2073438,4.84480649 15.1573145,5.0077651 L10.771767,20.1863419 C10.7219591,20.3484309 10.6202117,20.4762832 10.4738962,20.5593287 C10.3228892,20.6447315 10.1574042,20.6623398 10.008775,20.6120828 L9.27289548,20.4100902 C9.11030724,20.3602246 8.98218544,20.2583625 8.89964543,20.1122325 C8.81465869,19.9620457 8.79759264,19.7949847 8.84765255,19.6320787 L13.2330706,4.45376833 C13.2829616,4.29136005 13.3849919,4.16313134 13.5310073,4.08065616 C13.6816291,3.99537509 13.8473254,3.97771711 13.9960673,4.02770741 L14.7250007,4.22754039 Z M2.7065052,12.3199286 L7.14924795,16.7629089 C7.27335321,16.886949 7.33996742,17.040027 7.33996742,17.2096131 C7.33996742,17.3793932 7.27338836,17.5325303 7.14923868,17.6566147 L6.56157484,18.2439081 C6.43749515,18.368053 6.28451939,18.4345452 6.114706,18.4345452 C5.94478364,18.4345452 5.79174765,18.3680793 5.66788286,18.2439538 L0.190719476,12.7667492 C0.0665950853,12.64269 0,12.4896035 0,12.3199215 C0,12.15015 0.0665518384,11.9970248 0.190673092,11.8730991 L5.66792469,6.39584746 C5.79199815,6.271774 5.94510418,6.2051332 6.11474717,6.2051332 C6.28440491,6.2051332 6.43746733,6.27174515 6.56156346,6.39584128 L7.14928912,6.98352578 C7.27341042,7.10758185 7.34000859,7.26071045 7.34000859,7.43039462 C7.34000859,7.60018762 7.27343662,7.75337661 7.14933314,7.87721945 L2.7065052,12.3199286 Z M24.0049673,12.319798 C24.0049673,12.489499 23.9384282,12.6427576 23.8143739,12.7667467 L18.3370478,18.2439081 C18.2130219,18.3679992 18.0599398,18.4345452 17.8903436,18.4345452 C17.7205946,18.4345452 17.5678403,18.3682016 17.4434162,18.243973 L16.8559252,17.6566055 C16.7318105,17.532556 16.6654116,17.3794487 16.6654116,17.2096131 C16.6654116,17.0400677 16.7318733,16.8869608 16.8558757,16.7629585 L21.2987907,12.3198851 L16.8559252,7.87709879 C16.7318108,7.75304964 16.6654116,7.60002897 16.6654116,7.43022995 C16.6654116,7.26048879 16.7317995,7.10755205 16.8558541,6.9834322 L17.4437221,6.39540012 C17.568099,6.27147924 17.7207244,6.20500969 17.8903436,6.20500969 C18.0598588,6.20500969 18.2129535,6.271676 18.3369995,6.39572196 L23.8143524,11.8729514 C23.9384468,11.9969806 24.0049673,12.150074 24.0049673,12.319798 Z"/>
</svg>
