<svg width="12px" height="12px" viewBox="0 0 12 12" version="1.1"
     xmlns="http://www.w3.org/2000/svg"
     xmlns:xlink="http://www.w3.org/1999/xlink">
  <g transform="translate(0.000000, -1.000000)">
    <path
        d="M2.46666667,1.89710529 C1.61328957,1.89710529 0.921666692,2.58872817 0.921666692,3.44210526 C0.921666692,4.29548235 1.61328957,4.98710524 2.46666667,4.98710524 C3.32004376,4.98710524 4.01166664,4.29548235 4.01166664,3.44210526 C4.01166664,2.58872817 3.32004376,1.89710529 2.46666667,1.89710529 Z M2.46666667,0.987105238 C3.82262291,0.987105238 4.92166669,2.08614902 4.92166669,3.44210526 C4.92166669,4.7980615 3.82262291,5.89710529 2.46666667,5.89710529 C1.11071043,5.89710529 0.0116666416,4.7980615 0.0116666416,3.44210526 C0.0116666416,2.08614902 1.11071043,0.987105238 2.46666667,0.987105238 Z"></path>
    <path
        d="M2.46666667,8.97501956 C1.61328957,8.97501956 0.921666692,9.66664244 0.921666692,10.5200195 C0.921666692,11.3733966 1.61328957,12.0650195 2.46666667,12.0650195 C3.32004376,12.0650195 4.01166664,11.3733966 4.01166664,10.5200195 C4.01166664,9.66664244 3.32004376,8.97501956 2.46666667,8.97501956 Z M2.46666667,8.06501951 C3.82262291,8.06501951 4.92166669,9.16406329 4.92166669,10.5200195 C4.92166669,11.8759758 3.82262291,12.9750196 2.46666667,12.9750196 C1.11071043,12.9750196 0.0116666416,11.8759758 0.0116666416,10.5200195 C0.0116666416,9.16406329 1.11071043,8.06501951 2.46666667,8.06501951 Z"></path>
    <path
        d="M11.2389578,2.04785535 L3.86896266,8.94787976 C3.68552153,9.11962319 3.67603868,9.40755716 3.84778211,9.59099828 C4.01952553,9.7744394 4.3074595,9.78392226 4.49090063,9.61217883 L11.8608957,2.71215442 C12.0443369,2.54041099 12.0538197,2.25247702 11.8820763,2.0690359 C11.7103329,1.88559478 11.4223989,1.87611192 11.2389578,2.04785535 Z"></path>
    <path
        d="M7.13603721,8.39073607 L11.2161153,12.2793799 C11.3980201,12.4527498 11.6860271,12.4458309 11.8593969,12.2639262 C12.0327668,12.0820214 12.025848,11.7940144 11.8439433,11.6206446 L7.76386513,7.73200077 C7.5819604,7.55863088 7.29395341,7.56554973 7.12058352,7.74745446 C6.94721363,7.92935919 6.95413248,8.21736618 7.13603721,8.39073607 Z"></path>
    <path
        d="M3.57221265,5.00616112 L6.16134358,7.45668744 C6.34394172,7.6295105 6.63220099,7.62172712 6.8051887,7.43930278 C6.9781764,7.25687844 6.97038561,6.96889352 6.78778748,6.79607046 L4.19865655,4.34554414 C4.01605842,4.17272108 3.98521555,4.34998565 3.81222784,4.53240999 C3.63924014,4.71483433 3.38961452,4.83333806 3.57221265,5.00616112 Z"></path>
  </g>
</svg>
