<svg version="1.1" xmlns="http://www.w3.org/2000/svg" xmlns:xlink="http://www.w3.org/1999/xlink" width="512" height="512" viewBox="0 0 512 512">
<path d="M448.046 191.984c-35.337 0-64.016 28.647-64.016 64.016s28.679 64.015 64.015 64.015c35.337 0 64.015-28.647 64.015-64.016s-28.678-64.016-64.015-64.016zM256 191.984c-35.337 0-64.016 28.647-64.016 64.016s28.679 64.015 64.016 64.015c35.337 0 64.015-28.647 64.015-64.016s-28.679-64.016-64.016-64.016zM63.953 191.984c-35.337 0-64.016 28.647-64.016 64.016s28.679 64.015 64.016 64.015c35.337 0 64.016-28.647 64.016-64.016s-28.679-64.016-64.016-64.016z"></path>
</svg>
