<svg xmlns="http://www.w3.org/2000/svg" width="24" height="24" viewBox="0 0 24 24">
    <path fill="currentColor" fill-rule="evenodd" d="M17 14.5a.5.5 0 0 1-.5.5h-6a.5.5 0 0 1-.5-.5v-8a.5.5 0 0 1 .5-.5H13v3.5a.5.5 0 0 0 .5.5H17v4.5zm-3 3a.5.5 0 0 1-.5.5h-6a.5.5 0 0 1-.5-.5v-8a.5.5 0 0 1 .5-.5H9v5.5a1.5 1.5 0 0 0 1.5 1.5H14v1.5zm0-11L16.5 9H14V6.5zM14 5h-3.5A1.5 1.5 0 0 0 9 6.5V8H7.5A1.5 1.5 0 0 0 6 9.5v8A1.5 1.5 0 0 0 7.5 19h6a1.5 1.5 0 0 0 1.5-1.5V16h1.5a1.5 1.5 0 0 0 1.5-1.5V9l-4-4z"/>
</svg>
