<?xml version="1.0" encoding="UTF-8" standalone="no"?>
<svg width="12px" height="14px" viewBox="0 0 12 14" version="1.1" xmlns="http://www.w3.org/2000/svg" xmlns:xlink="http://www.w3.org/1999/xlink" xmlns:sketch="http://www.bohemiancoding.com/sketch/ns">
    <!-- Generator: Sketch 3.3.2 (12043) - http://www.bohemiancoding.com/sketch -->
    <title>duplication</title>
    <desc>Created with Sketch.</desc>
    <defs></defs>
    <g id="Page-1" stroke="none" stroke-width="1" fill="none" fill-rule="evenodd" sketch:type="MSPage">
        <g id="duplication" sketch:type="MSArtboardGroup" fill="#6EB7FD">
            <path d="M9.922,11 L4.922,11 C3.817,11 3,10.112 3,9.007 L3,2.007 C3,0.903 3.817,0 4.922,0 L7.922,0 L12,4.008 L12,9.007 C12,10.107 11.022,11 9.922,11 L9.922,11 Z M10,5 L7,5 L7,2 L5,2 L5,9 L10,9 L10,5 L10,5 Z M9,14 L2.922,14 C1.267,14 0,12.662 0,11.008 L0,4 L2,4 L2,11.008 C2,11.559 2.371,12 2.922,12 L9,12 L9,14 L9,14 Z" id="Imported-Layers" sketch:type="MSShapeGroup"></path>
        </g>
    </g>
</svg>