<?xml version="1.0" encoding="UTF-8" standalone="no"?>
<svg width="15px" height="15px" viewBox="0 0 15 15" version="1.1" xmlns="http://www.w3.org/2000/svg" xmlns:xlink="http://www.w3.org/1999/xlink">
    <!-- Generator: Sketch 41.1 (35376) - http://www.bohemiancoding.com/sketch -->
    <title>Page 1</title>
    <desc>Created with Sketch.</desc>
    <defs></defs>
    <g id="Page-1" stroke="none" stroke-width="1" fill="none" fill-rule="evenodd">
        <g id="Desktop-1440px---inner-grid" transform="translate(-1278.000000, -540.000000)" fill="#1D2D3C">
            <g id="Tooltip" transform="translate(1248.000000, 456.000000)">
                <path d="M37,88 L42,88 L42,87 L37,87 L37,88 Z M44,93.5 C44,93.776 43.776,94 43.5,94 L35.5,94 C35.224,94 35,93.776 35,93.5 L35,85.5 C35,85.224 35.224,85 35.5,85 L43.5,85 C43.776,85 44,85.224 44,85.5 L44,93.5 Z M40,97.5 C40,97.776 39.776,98 39.5,98 L31.5,98 C31.224,98 31,97.776 31,97.5 L31,89.5 C31,89.224 31.224,89 31.5,89 L34,89 L34,93.5 C34,94.327 34.673,95 35.5,95 L40,95 L40,97.5 Z M43.5,84 L35.5,84 C34.673,84 34,84.673 34,85.5 L34,88 L31.5,88 C30.673,88 30,88.673 30,89.5 L30,97.5 C30,98.327 30.673,99 31.5,99 L39.5,99 C40.327,99 41,98.327 41,97.5 L41,95 L43.5,95 C44.327,95 45,94.327 45,93.5 L45,85.5 C45,84.673 44.327,84 43.5,84 L43.5,84 Z M37,91 L42,91 L42,90 L37,90 L37,91 Z" id="Page-1"></path>
            </g>
        </g>
    </g>
</svg>