<?xml version="1.0" encoding="UTF-8"?>
<svg xmlns="http://www.w3.org/2000/svg" xmlns:xlink="http://www.w3.org/1999/xlink" width="18px" height="18px" viewBox="0 0 18 18" version="1.1">
<!-- Generator: Sketch 43.2 (39069) - http://www.bohemiancoding.com/sketch -->
<title>Email Icon</title>
<desc>Created with Sketch.</desc>
<defs/>
<g id="Page-1" stroke="none" stroke-width="1" fill="none" fill-rule="evenodd">
    <g id="Email-Icon" fill-rule="nonzero" fill="#000000">
        <path d="M3.00458004,4.71571562 C3.00117222,7.00466398 3,13.9975267 3,13.9975267 C3,13.9944441 14.9931545,14 14.9931545,14 C14.9974019,14 14.9992909,7.25118859 14.9998297,4.84338962 L9,10 L3.00458004,4.71571562 Z M3.00590132,4.11610528 L3.0743768,4.00003102 C3.03002489,4.00001074 3.00684547,4 3.00684547,4 C3.00651679,4 3.00620223,4.04041482 3.00590132,4.11610528 Z M3.57623836,4.00025673 L9,9 L14.5671833,4.0032122 C12.7385546,4.00418965 5.64512386,4.00117483 3.57623835,4.00025673 Z M14.9665409,4.00273406 L14.99999,4.0594344 C14.9999967,4.02202854 15,4.00247329 15,4.00247329 C15,4.00256828 14.988613,4.00265507 14.9665409,4.00273406 Z M2,4.00247329 C2,3.44882258 2.44994876,3 3.00684547,3 L14.9931545,3 C15.5492199,3 16,3.45576096 16,4.00247329 L16,13.9975267 C16,14.5511774 15.5500512,15 14.9931545,15 L3.00684547,15 C2.45078007,15 2,14.544239 2,13.9975267 L2,4.00247329 Z" id="Combined-Shape"/>
    </g>
</g>
</svg>