<?xml version="1.0" encoding="UTF-8" standalone="no"?>
<svg width="13px" height="15px" viewBox="0 0 13 15" version="1.1" xmlns="http://www.w3.org/2000/svg" xmlns:xlink="http://www.w3.org/1999/xlink">
    <g id="Symbols" stroke="none" stroke-width="1" fill="none" fill-rule="evenodd">
        <g id="media-asstes" transform="translate(-30.000000, -17.000000)" fill="#162D3D">
            <path d="M41,31 L32,31 C31.448,31 31,30.552 31,30 L31,19 C31,18.448 31.448,18 32,18 L37,18 L37,22.5 C37,22.776 37.224,23 37.5,23 L42,23 L42,30 C42,30.552 41.552,31 41,31 L41,31 Z M38,18.996 L41.008,22 L38,22 L38,18.996 Z M43,22 L38,17 L32,17 C30.895,17 30,17.895 30,19 L30,30 C30,31.105 30.895,32 32,32 L41,32 C42.105,32 43,31.105 43,30 L43,22 Z" id="Page-1"></path>
        </g>
    </g>
</svg>