<?xml version="1.0" encoding="utf-8"?>
<!-- Generator: Adobe Illustrator 19.0.0, SVG Export Plug-In . SVG Version: 6.00 Build 0)  -->
<!DOCTYPE svg PUBLIC "-//W3C//DTD SVG 1.1//EN" "http://www.w3.org/Graphics/SVG/1.1/DTD/svg11.dtd">
<svg version="1.1" id="Layer_1" xmlns:sketch="http://www.bohemiancoding.com/sketch/ns"
	 xmlns="http://www.w3.org/2000/svg" xmlns:xlink="http://www.w3.org/1999/xlink" x="0px" y="0px" viewBox="-13.7 17.9 16.2 16.7"
	 style="enable-background:new -13.7 17.9 16.2 16.7;" xml:space="preserve">
<style type="text/css">
	.st0{fill:#3899EC;}
</style>
<path class="st0" d="M2.5,34l-3.9-4.3c1.1-1.2,1.7-2.9,1.7-4.6c0-3.9-3.1-7.1-7-7.1c-3.9,0-7,3.2-7,7.1s3.1,7.1,7,7.1
	c1.8,0,3.3-0.7,4.6-1.7l3.9,4.3L2.5,34z M-12.7,25c0-3.4,2.7-6.1,6-6.1s6,2.7,6,6.1c0,3.4-2.7,6.1-6,6.1S-12.7,28.3-12.7,25z"/>
</svg>
