<svg xmlns="http://www.w3.org/2000/svg" xmlns:xlink="http://www.w3.org/1999/xlink" width="24" height="24" viewBox="0 0 24 24">
    <path d="M19.8255814,10.4152893 L12.6744186,10.4152893 L12.6744186,13.4447314 L16.7906977,13.4447314 C16.4069767,15.3693182 14.8023256,16.4741736 12.6744186,16.4741736 C10.1627907,16.4741736 8.13953488,14.4070248 8.13953488,11.8409091 C8.13953488,9.27479339 10.1627907,7.20764463 12.6744186,7.20764463 C13.755814,7.20764463 14.7325581,7.59969008 15.5,8.24121901 L17.7325581,5.96022727 C16.372093,4.74845041 14.627907,4 12.6744186,4 C8.41860465,4 5,7.4927686 5,11.8409091 C5,16.1890496 8.41860465,19.6818182 12.6744186,19.6818182 C16.5116279,19.6818182 20,16.8305785 20,11.8409091 C20,11.3775826 19.9302326,10.8786157 19.8255814,10.4152893 Z"/>
</svg>
