<?xml version="1.0" encoding="UTF-8" standalone="no"?>
<svg width="15px" height="15px" viewBox="0 0 15 15" version="1.1" xmlns="http://www.w3.org/2000/svg" xmlns:xlink="http://www.w3.org/1999/xlink" xmlns:sketch="http://www.bohemiancoding.com/sketch/ns">
    <!-- Generator: Sketch 3.3.2 (12043) - http://www.bohemiancoding.com/sketch -->
    <title>Imported Layers</title>
    <desc>Created with Sketch.</desc>
    <defs></defs>
    <g id="Page-1" stroke="none" stroke-width="1" fill="none" fill-rule="evenodd" sketch:type="MSPage">
        <g id="v" sketch:type="MSArtboardGroup" fill="#2D4150">
            <path d="M7.5,15 C3.364,15 0,11.636 0,7.5 C0,3.364 3.364,0 7.5,0 C11.636,0 15,3.364 15,7.5 C15,11.636 11.636,15 7.5,15 L7.5,15 Z M7.5,1 C3.916,1 1,3.916 1,7.5 C1,11.084 3.916,14 7.5,14 C11.084,14 14,11.084 14,7.5 C14,3.916 11.084,1 7.5,1 L7.5,1 Z M9.671,6.802 C9.575,6.962 9.465,7.11 9.341,7.246 C9.217,7.382 9.091,7.514 8.963,7.642 C8.835,7.762 8.709,7.884 8.585,8.008 C8.461,8.132 8.349,8.264 8.249,8.404 C8.149,8.544 7.997,8.698 7.937,8.866 C7.877,9.034 7.774,9.218 7.774,9.418 L7.774,9.974 L6.774,9.974 L6.774,9.322 C6.774,9.074 6.871,8.853 6.939,8.662 C7.007,8.47 7.124,8.294 7.228,8.134 C7.332,7.974 7.463,7.828 7.592,7.696 C7.72,7.563 7.851,7.437 7.971,7.318 C8.091,7.198 8.213,7.078 8.329,6.958 C8.445,6.838 8.551,6.708 8.643,6.568 C8.735,6.428 8.808,6.272 8.86,6.1 C8.912,5.928 8.93,5.73 8.914,5.506 C8.883,5.066 8.741,4.722 8.489,4.474 C8.237,4.226 7.895,4.102 7.463,4.102 C7.175,4.102 6.927,4.154 6.719,4.258 C6.511,4.362 6.337,4.502 6.197,4.678 C6.057,4.854 5.955,5.009 5.891,5.253 C5.827,5.497 5.795,5.974 5.795,5.974 L4.775,5.974 C4.767,5.974 4.825,5.24 4.949,4.887 C5.073,4.536 5.251,4.257 5.483,3.996 C5.715,3.736 5.997,3.548 6.329,3.404 C6.661,3.26 7.039,3.195 7.463,3.195 C7.831,3.195 8.171,3.252 8.483,3.36 C8.795,3.468 9.063,3.626 9.287,3.83 C9.511,4.034 9.685,4.285 9.809,4.581 C9.933,4.877 9.995,5.217 9.995,5.601 C9.995,5.849 9.965,6.072 9.905,6.267 C9.845,6.464 9.767,6.642 9.671,6.802 L9.671,6.802 Z M6.774,10.974 L7.774,10.974 L7.774,11.974 L6.774,11.974 L6.774,10.974 Z" id="Imported-Layers" sketch:type="MSShapeGroup"></path>
        </g>
    </g>
</svg>