<?xml version="1.0" encoding="utf-8"?>
<!-- Generated by IcoMoon.io -->
<!DOCTYPE svg PUBLIC "-//W3C//DTD SVG 1.1//EN" "http://www.w3.org/Graphics/SVG/1.1/DTD/svg11.dtd">
<svg version="1.1" xmlns="http://www.w3.org/2000/svg" xmlns:xlink="http://www.w3.org/1999/xlink" width="1195" height="1024" viewBox="0 0 1195 1024">
<g id="icomoon-ignore">
</g>
<path d="M1080.927 982.823c-5.925 0-11.349-3.277-14.052-8.653l-300.018-482.219-212.294 311.448c-2.954 5.097-7.223 7.977-12.078 8.635-4.767 0.623-9.723-1.043-13.125-4.446l-148.146-90.744-16.038 2.214-236.9 254.821c-6.031 9.064-15.726 11.176-23.009 6.487-7.26-4.663-9.359-14.335-4.679-21.654l254.747-282.796c3.807-5.596 8.056-8.22 12.807-8.759 4.537-0.49 9.34 1.203 12.663 4.525l146.755 89.34 17.234-3.775 209.080-309.040c3.523-6.058 8.625-8.992 14.281-8.724 6.054 0.166 11.249 3.474 13.862 8.669l313.421 512.955c3.348 6.768 0.205 16.161-7.565 20.061-2.19 1.11-4.515 1.655-6.944 1.655v25.6c6.412 0 12.706-1.474 18.476-4.399 20.33-10.206 28.618-34.969 18.395-55.334l-313.426-512.964c-6.331-12.683-20.041-21.412-35.268-21.823-15.195-0.722-29.218 7.339-36.93 20.752l-208.585 308.248 17.234-3.775-144.336-87.444c-6.384-6.906-18.856-11.301-31.163-9.971-12.424 1.408-23.517 8.258-30.257 18.697l-254.777 282.843c-13.545 20.863-8.015 46.349 11.131 58.646 19.185 12.351 44.774 6.778 57.021-12.42l235.484-252.99-16.038 2.214 145.759 88.866c6.659 7.169 19.539 11.499 32.217 9.842 12.814-1.736 24.033-9.305 30.396-20.46l200.687-294.347-21.444-0.447 289.071 464.527c6.523 13.088 20.842 21.74 36.355 21.74v-25.6z"></path>
<path d="M1080.927 995.623c-10.468 0-20.481-5.746-25.488-15.702l-289.071-464.527-201.229 295.215c-4.381 7.68-12.118 12.915-20.936 14.109-8.705 1.138-17.637-1.821-23.895-8.079l-145.759-88.866-236.9 254.821c-8.42 13.199-26.057 17.068-39.313 8.534-13.199-8.477-17.011-26.057-8.534-39.313l256.016-284.462c4.665-7.225 12.346-11.947 20.88-12.915 8.42-0.91 17.068 2.105 23.155 8.193l144.336 87.444 209.080-309.040c5.234-9.103 14.678-14.849 25.488-14.337 10.525 0.284 19.969 6.315 24.691 15.702l312.909 512.032c7.055 14.052 1.309 31.12-12.744 38.175-4.039 2.048-8.363 3.015-12.687 3.015z"></path>
<path d="M338.98 249.531c-53.681 0-97.344 43.663-97.344 97.344s43.663 97.344 97.344 97.344c53.681 0 97.344-43.663 97.344-97.344s-43.663-97.344-97.344-97.344v25.6c39.542 0 71.744 32.201 71.744 71.744s-32.201 71.744-71.744 71.744c-39.542 0-71.744-32.201-71.744-71.744s32.201-71.744 71.744-71.744v-25.6zM338.98 474.981c-70.598 0-128.106-57.508-128.106-128.106s57.508-128.106 128.106-128.106c70.598 0 128.106 57.508 128.106 128.106s-57.508 128.106-128.106 128.106v25.6c84.737 0 153.706-68.969 153.706-153.706s-68.969-153.706-153.706-153.706c-84.737 0-153.706 68.969-153.706 153.706s68.969 153.706 153.706 153.706v-25.6z"></path>
<path d="M338.98 262.331c-46.612 0-84.544 37.932-84.544 84.544s37.932 84.544 84.544 84.544c46.612 0 84.544-37.932 84.544-84.544s-37.932-84.544-84.544-84.544zM338.98 487.781c-77.667 0-140.906-63.239-140.906-140.906s63.239-140.906 140.906-140.906c77.667 0 140.906 63.239 140.906 140.906s-63.239 140.906-140.906 140.906z"></path>
<path d="M85.333 171.395v0 681.211c0 47.423 38.551 86.061 85.833 86.061h852.333c47.428 0 85.833-38.47 85.833-86.061v-681.211c0-47.423-38.551-86.061-85.833-86.061h-852.333c-47.428 0-85.833 38.47-85.833 86.061v0zM0 171.395c0-94.659 76.549-171.395 171.167-171.395h852.333c94.533 0 171.167 76.966 171.167 171.395v681.211c0 94.659-76.549 171.395-171.167 171.395h-852.333c-94.533 0-171.167-76.966-171.167-171.395v-681.211z"></path>
</svg>
