<?xml version="1.0" encoding="utf-8"?>
<svg version="1.1" xmlns="http://www.w3.org/2000/svg" xmlns:xlink="http://www.w3.org/1999/xlink" x="0px" y="0px" viewBox="0 0 33 30" width="30px" height="30px" xml:space="preserve">
<path d="m5.24539,25.335867l6.890577,-6.890577l2.296859,4.593718l6.890577,-9.187436l6.890577,11.484295l-22.968591,0zm3.215603,-20.671732c1.837487,0 3.445289,1.607801 3.445289,3.445289s-1.607801,3.445289 -3.445289,3.445289s-3.445289,-1.607801 -3.445289,-3.445289s1.607801,-3.445289 3.445289,-3.445289l0,0zm17.226443,-4.593718l-18.374873,0c-3.90466,0 -6.890577,2.985917 -6.890577,6.890577l0,16.078014c0,3.90466 2.985917,6.890577 6.890577,6.890577l18.374873,0c3.90466,0 6.890577,-2.985917 6.890577,-6.890577l0,-16.078014c0,-3.90466 -2.985917,-6.890577 -6.890577,-6.890577l0,0z"/>
</svg>
