<?xml version="1.0" encoding="UTF-8" standalone="no"?>
<svg width="15px" height="14px" viewBox="0 0 15 14" version="1.1" xmlns="http://www.w3.org/2000/svg" xmlns:xlink="http://www.w3.org/1999/xlink">
    <!-- Generator: Sketch 41.2 (35397) - http://www.bohemiancoding.com/sketch -->
    <g id="full-flow" stroke="none" stroke-width="1" fill="none" fill-rule="evenodd">
        <g id="01list" transform="translate(-1261.000000, -181.000000)" fill="#20455E">
            <g id="Group-26" transform="translate(1243.000000, 157.000000)">
                <path d="M29,30.625 L28.5,30 L26,32.5 L26,24 L25,24 L25,32.5 L22.5,30 L22,30.625 L25.5,34 L29,30.625 Z M32,32 L32,35.5 C32,36.327 31.327,37 30.5,37 L20.5,37 C19.673,37 19,36.327 19,35.5 L19,32 L18,32 L18,35.5 C18,36.878 19.122,38 20.5,38 L30.5,38 C31.878,38 33,36.878 33,35.5 L33,32 L32,32 Z" id="import"></path>
            </g>
        </g>
    </g>
</svg>