<?xml version="1.0" encoding="UTF-8"?>
<svg width="18px" height="18px" viewBox="0 0 18 18" version="1.1" xmlns="http://www.w3.org/2000/svg" xmlns:xlink="http://www.w3.org/1999/xlink">
    <!-- Generator: Sketch 41.2 (35397) - http://www.bohemiancoding.com/sketch -->
    <title>!</title>
    <desc>Created with Sketch.</desc>
    <defs></defs>
    <g id="Page-1" stroke="none" stroke-width="1" fill="none" fill-rule="evenodd">
        <g id="09-Edit-create-new-Copy-5" transform="translate(-382.000000, -1115.000000)" fill="#3899EC">
            <path d="M392,1127 L392,1122 L390,1122 L389,1124 L390,1124 L390,1127 L390,1127 L389,1129 L393,1129 L392,1127 L392,1127 Z M390,1121 L392,1121 L392,1119 L390,1119 L390,1121 Z M391,1132 C386.589,1132 383,1128.411 383,1124 C383,1119.589 386.589,1116 391,1116 C395.411,1116 399,1119.589 399,1124 C399,1128.411 395.411,1132 391,1132 L391,1132 Z M391,1115 C386.029,1115 382,1119.029 382,1124 C382,1128.971 386.029,1133 391,1133 C395.971,1133 400,1128.971 400,1124 C400,1119.029 395.971,1115 391,1115 L391,1115 Z" id="!"></path>
        </g>
    </g>
</svg>