<?xml version="1.0" encoding="utf-8"?>
<!-- Generator: Adobe Illustrator 19.2.0, SVG Export Plug-In . SVG Version: 6.00 Build 0)  -->
<svg version="1.1" id="Layer_1" xmlns="http://www.w3.org/2000/svg" xmlns:xlink="http://www.w3.org/1999/xlink" x="0px" y="0px"
	 width="36px" height="36px" viewBox="0 0 36 36" style="enable-background:new 0 0 36 36;" xml:space="preserve">
<style type="text/css">
	.st0{fill:#459FED;}
</style>
<path class="st0" d="M17.4,26h1.8v-2.3h-1.8V26z M14.9,15.1c0-0.6,0.1-1.1,0.2-1.6c0.1-0.5,0.4-0.9,0.7-1.3c0.3-0.4,0.7-0.6,1.1-0.8
	c0.4-0.2,1-0.3,1.6-0.3c0.4,0,0.8,0.1,1.2,0.2c0.4,0.1,0.7,0.3,1,0.6c0.3,0.3,0.5,0.6,0.7,0.9c0.2,0.4,0.3,0.8,0.3,1.2
	c0,0.6-0.1,1.1-0.4,1.6c-0.3,0.5-0.6,0.9-1,1.3c-0.5,0.4-0.9,0.8-1.2,1.1c-0.3,0.3-0.6,0.7-0.8,1c-0.2,0.4-0.4,0.8-0.4,1.2
	c-0.1,0.5-0.1,1-0.1,1.7H19c0-0.7,0-1.2,0.1-1.5c0-0.4,0.1-0.7,0.3-0.9c0.1-0.3,0.3-0.5,0.6-0.8c0.3-0.2,0.6-0.6,1.1-1.1
	c0.6-0.5,1-1.1,1.4-1.6c0.4-0.6,0.5-1.3,0.5-2.1c0-0.6-0.1-1.2-0.4-1.7c-0.2-0.5-0.6-0.9-1-1.3c-0.4-0.4-0.9-0.6-1.4-0.8
	c-0.5-0.2-1.1-0.3-1.7-0.3c-0.8,0-1.5,0.1-2.1,0.4c-0.6,0.2-1.1,0.6-1.6,1c-0.4,0.4-0.7,1-1,1.6c-0.2,0.6-0.3,1.3-0.3,2.1H14.9z"/>
<g>
	<path class="st0" d="M18,36C8.1,36,0,27.9,0,18C0,8.1,8.1,0,18,0s18,8.1,18,18C36,27.9,27.9,36,18,36z M18,1C8.6,1,1,8.6,1,18
		s7.6,17,17,17s17-7.6,17-17S27.4,1,18,1z"/>
</g>
</svg>
