<svg xmlns="http://www.w3.org/2000/svg" width="18" height="18" viewBox="0 0 18 18">
    <metadata><?xpacket begin="﻿" id="W5M0MpCehiHzreSzNTczkc9d"?>
        <x:xmpmeta xmlns:x="adobe:ns:meta/" x:xmptk="Adobe XMP Core 5.6-c138 79.159824, 2016/09/14-01:09:01        ">
            <rdf:RDF xmlns:rdf="http://www.w3.org/1999/02/22-rdf-syntax-ns#">
                <rdf:Description rdf:about=""/>
            </rdf:RDF>
        </x:xmpmeta>





















        <?xpacket end="w"?></metadata>
    <defs>
        <style>
            .cls-1 {
            fill: #858f96;
            fill-rule: evenodd;
            }
        </style>
    </defs>
    <path id="lang" class="cls-1" d="M12.255,1.674a9.043,9.043,0,0,0-1.285-.15C10.813,1.516,10.659,1.5,10.5,1.5H10.489a9,9,0,0,0,0,18H10.5c0.159,0,.313-0.016.47-0.024A8.993,8.993,0,0,0,12.255,1.674ZM17.909,7.5h-3.64a12.071,12.071,0,0,0-2.769-5A8.5,8.5,0,0,1,17.909,7.5Zm-4.409,3a11.029,11.029,0,0,1-.2,2H7.755a8.661,8.661,0,0,1-.255-2,8.661,8.661,0,0,1,.255-2H13.3A11.03,11.03,0,0,1,13.5,10.5Zm-3,7.5a13.345,13.345,0,0,1-2.454-4.5h5.028A11.634,11.634,0,0,1,10.5,18ZM8.046,7.5A13.344,13.344,0,0,1,10.5,3a11.634,11.634,0,0,1,2.574,4.5H8.046ZM9.5,2.5a13.758,13.758,0,0,0-2.675,5H3.09A8.235,8.235,0,0,1,9.5,2.5Zm-6.74,6H6.59a10.8,10.8,0,0,0-.2,2,10.8,10.8,0,0,0,.2,2H2.76A7.815,7.815,0,0,1,2.76,8.5Zm0.33,5H6.825a13.758,13.758,0,0,0,2.675,5A8.236,8.236,0,0,1,3.09,13.5Zm8.41,5a11.322,11.322,0,0,0,2.769-5h3.64C16.909,15.957,14.156,18.344,11.5,18.5Zm6.743-6H14.455a13.683,13.683,0,0,0,.156-2,13.7,13.7,0,0,0-.111-2h3.743A7.908,7.908,0,0,1,18.243,12.5Z" transform="translate(-1.5 -1.5)"/>
</svg>