<?xml version="1.0" encoding="UTF-8"?>
<svg width="16px" height="16px" viewBox="0 0 16 16" version="1.1" xmlns="http://www.w3.org/2000/svg" xmlns:xlink="http://www.w3.org/1999/xlink">
    <!-- Generator: sketchtool 42 (36781) - http://www.bohemiancoding.com/sketch -->
    <title>86417E82-0C27-4BAF-8BB7-CE6F0A70C40F</title>
    <desc>Created with sketchtool.</desc>
    <defs></defs>
    <g id="3.-Inputs" stroke="none" stroke-width="1" fill="none" fill-rule="evenodd">
        <g id="3.2b-Rich-Text-Area-Styling-Buttons" transform="translate(-1708.000000, -2515.000000)" fill="#3899EC">
            <g id="Group-2" transform="translate(108.000000, 2262.000000)">
                <g id="Click" transform="translate(1422.000000, 210.000000)">
                    <path d="M184.889215,55.0220622 L183.237164,56.6740363 C182.435139,57.4760238 181.130098,57.4770238 180.327073,56.6740363 C179.525048,55.8720489 179.525048,54.5660693 180.327073,53.7640818 L183.656177,50.4351338 C184.459202,49.6321464 185.764243,49.6331464 186.566268,50.4351338 C186.902278,50.7721286 187.448295,50.7721286 187.785306,50.4351338 C188.122316,50.0981391 188.122316,49.5521476 187.785306,49.2151529 C186.31026,47.7411759 183.912185,47.7401759 182.436139,49.2151529 L179.108035,52.5441009 C178.393012,53.2590897 178,54.2090749 178,55.2190591 C178,56.2300433 178.393012,57.1790285 179.108035,57.8940173 C179.845058,58.6310058 180.813088,59 181.782118,59 C182.750148,59 183.719179,58.6310058 184.456202,57.8940173 L186.108253,56.2410431 C186.445264,55.9050484 186.445264,55.3590569 186.108253,55.0220622 C185.772243,54.6850674 185.226226,54.6850674 184.889215,55.0220622 M192.894465,44.1062327 C191.419419,42.6312558 189.020344,42.6312558 187.545298,44.1062327 L185.893247,45.7592069 C185.557236,46.0952016 185.557236,46.6411931 185.893247,46.9781878 C186.230257,47.3141826 186.776274,47.3141826 187.113285,46.9781878 L188.764336,45.3262137 C189.567361,44.5232262 190.872402,44.5232262 191.675427,45.3262137 C192.477452,46.1282011 192.477452,47.4331807 191.675427,48.2361682 L188.346323,51.5651162 C187.544298,52.3671036 186.238257,52.3671036 185.436232,51.5651162 C185.098222,51.2271215 184.552205,51.2281214 184.216194,51.5651162 C183.880184,51.9021109 183.880184,52.4481024 184.216194,52.7840971 C184.954217,53.5210856 185.922248,53.8900798 186.891278,53.8900798 C187.859308,53.8900798 188.828338,53.5210856 189.565361,52.7840971 L192.894465,49.4551491 C194.368512,47.9801722 194.368512,45.5812097 192.894465,44.1062327" id="Icon-Link"></path>
                </g>
            </g>
        </g>
    </g>
</svg>