<?xml version="1.0" encoding="utf-8"?>
<svg version="1.1" xmlns="http://www.w3.org/2000/svg" xmlns:xlink="http://www.w3.org/1999/xlink" x="0px" y="0px" viewBox="0 0 30 30" width="30px" height="30px" xml:space="preserve">
<path d="M13.9,19l-1.7,1.7c-0.8,0.8-2.1,0.8-2.9,0c-0.8-0.8-0.8-2.1,0-2.9l3.3-3.3c0.8-0.8,2.1-0.8,2.9,0
	c0.3,0.3,0.9,0.3,1.2,0c0.3-0.3,0.3-0.9,0-1.2c-1.5-1.5-3.9-1.5-5.3,0l-3.3,3.3C7.4,17.3,7,18.2,7,19.2c0,1,0.4,2,1.1,2.7
	c0.7,0.7,1.7,1.1,2.7,1.1c1,0,1.9-0.4,2.7-1.1l1.7-1.7c0.3-0.3,0.3-0.9,0-1.2C14.8,18.7,14.2,18.7,13.9,19 M21.9,8.1
	c-1.5-1.5-3.9-1.5-5.3,0l-1.7,1.7c-0.3,0.3-0.3,0.9,0,1.2c0.3,0.3,0.9,0.3,1.2,0l1.7-1.7c0.8-0.8,2.1-0.8,2.9,0
	c0.8,0.8,0.8,2.1,0,2.9l-3.3,3.3c-0.8,0.8-2.1,0.8-2.9,0c-0.3-0.3-0.9-0.3-1.2,0c-0.3,0.3-0.3,0.9,0,1.2c0.7,0.7,1.7,1.1,2.7,1.1
	c1,0,1.9-0.4,2.7-1.1l3.3-3.3C23.4,12,23.4,9.6,21.9,8.1"/>
</svg>
