<?xml version="1.0" encoding="UTF-8"?>
<svg width="17px" height="21px" viewBox="0 0 17 21" version="1.1" xmlns="http://www.w3.org/2000/svg" xmlns:xlink="http://www.w3.org/1999/xlink">
    <!-- Generator: Sketch 43.2 (39069) - http://www.bohemiancoding.com/sketch -->
    <title>Group 5</title>
    <desc>Created with Sketch.</desc>
    <defs></defs>
    <g id="***full-flow" stroke="none" stroke-width="1" fill="none" fill-rule="evenodd">
        <g id="01list" transform="translate(-1260.000000, -245.000000)" fill="#20455E">
            <g id="Group-26" transform="translate(1243.000000, 157.000000)">
                <g id="Group-4" transform="translate(17.000000, 88.000000)">
                    <g id="site_member_logged">
                        <g id="Group-5">
                            <path d="M16.6508,16.93458 C16.1328,17.84258 14.9138,18.28058 13.9548,18.18758 L12.7768,20.32758 C12.4788,20.84958 11.9488,21.18958 11.4398,20.88458 C10.9298,20.57958 10.8888,19.98858 11.1868,19.46658 L12.5038,17.25658 C11.9538,16.44658 11.7238,15.20458 12.2418,14.29558 C12.9528,13.04958 14.5168,12.62858 15.7348,13.35758 C16.9518,14.08658 17.3618,15.68758 16.6508,16.93458 Z M15.6775,15.56258 C15.6775,14.83458 15.1015,14.24458 14.3905,14.24458 C13.6795,14.24458 13.1025,14.83458 13.1025,15.56258 C13.1025,16.29058 13.6795,16.88058 14.3905,16.88058 C15.1015,16.88058 15.6775,16.29058 15.6775,15.56258 Z" id="Combined-Shape"></path>
                            <path d="M3.866,5.148 C3.866,3.055 5.591,1.352 7.711,1.352 C9.831,1.352 11.555,3.055 11.555,5.148 C11.555,7.241 9.831,8.943 7.711,8.943 C5.591,8.943 3.866,7.241 3.866,5.148 L3.866,5.148 Z M0.89,16.76 L0.899,16.557 C1.062,13.079 2.501,10.108 4.684,8.598 C5.499,9.296 6.549,9.734 7.711,9.734 C8.872,9.734 9.922,9.296 10.738,8.598 C11.803,9.335 12.688,10.424 13.337,11.746 C13.627,11.686 13.928,11.653 14.237,11.652 C13.533,10.126 12.548,8.842 11.348,7.966 C11.97,7.186 12.356,6.215 12.356,5.148 C12.356,2.619 10.272,0.561 7.711,0.561 C5.149,0.561 3.065,2.619 3.065,5.148 C3.065,6.215 3.452,7.186 4.074,7.966 C1.591,9.777 0,13.318 0,17.197 C0,17.438 0.198,17.634 0.442,17.634 L10.159,17.634 C10.045,17.356 9.965,17.063 9.911,16.76 L0.89,16.76 Z" id="Fill-16"></path>
                        </g>
                    </g>
                </g>
            </g>
        </g>
    </g>
</svg>