<svg version="1.1" xmlns="http://www.w3.org/2000/svg" xmlns:xlink="http://www.w3.org/1999/xlink" width="1059" height="1024" viewBox="0 0 1059 1024">
    <path d="M501.905 61.626v441.551h-423.55l81.18-94.593c2.588-3.019 4.164-6.973 4.164-11.294 0-9.61-7.791-17.4-17.4-17.4-5.288 0-10.025 2.359-13.216 6.082l-105.907 121.794c-2.608 3.011-4.198 6.968-4.198 11.294s1.589 8.283 4.215 11.316l105.869 121.748c3.211 3.747 7.948 6.105 13.236 6.105 9.61 0 17.4-7.791 17.4-17.4 0-4.322-1.576-8.275-4.184-11.318l-79.043-91.393h421.432v423.55l-94.593-79.063c-3.019-2.588-6.973-4.164-11.294-4.164-9.61 0-17.4 7.791-17.4 17.4 0 5.288 2.359 10.025 6.082 13.216l121.794 105.907c3.011 2.608 6.968 4.198 11.294 4.198s8.283-1.589 11.316-4.215l121.748-105.869c3.711-3.229 6.044-7.96 6.044-13.236 0-9.673-7.842-17.515-17.515-17.515-4.397 0-8.417 1.62-11.492 4.297l-91.395 78.338v-422.844h439.080l-78.357 91.416c-2.588 3.019-4.164 6.973-4.164 11.294 0 9.61 7.791 17.4 17.4 17.4 5.288 0 10.025-2.359 13.216-6.082l105.907-121.794c2.608-3.011 4.198-6.968 4.198-11.294s-1.589-8.283-4.215-11.316l-105.869-121.748c-3.211-3.747-7.948-6.105-13.236-6.105-9.61 0-17.4 7.791-17.4 17.4 0 4.322 1.576 8.275 4.184 11.318l81.161 94.57h-441.551v-438.727l91.063 76.944c3.019 2.588 6.973 4.164 11.294 4.164 9.61 0 17.4-7.791 17.4-17.4 0-5.288-2.359-10.025-6.082-13.216l-122.5-102.73c-3.011-2.608-6.968-4.198-11.294-4.198s-8.283 1.589-11.316 4.215l-121.748 105.869c-3.747 3.211-6.105 7.948-6.105 13.236 0 9.61 7.791 17.4 17.4 17.4 4.322 0 8.275-1.576 11.318-4.184z"></path>
</svg>
