<svg xmlns="http://www.w3.org/2000/svg" width="24" height="24" viewBox="0 0 24 24">
  <path d="M18,5 L18,16 C18,17.1 16.7,18 15,18 C13.3,18 12,17.1 12,16 C12,14.9 13.3,14 15,14 C15.8,14 16.5,14.2 17,14.5 L17,6.2 L10,7.3 L10,16.9 L10,17 C10,18.1 8.7,19 7,19 C5.3,19 4,18.1 4,17 C4,15.9 5.3,15 7,15 C7.8,15 8.5,15.2 9,15.5 L9,6.4 L18,5 Z M7,18 C8.2,18 9,17.4 9,17 C9,16.6 8.2,16 7,16 C5.8,16 5,16.6 5,17 C5,17.4 5.8,18 7,18 Z M15,17 C16.2,17 17,16.4 17,16 C17,15.6 16.2,15 15,15 C13.8,15 13,15.6 13,16 C13,16.4 13.8,17 15,17 Z"/>
</svg>
