<svg xmlns="http://www.w3.org/2000/svg" width="14" height="15"
     viewBox="0 0 14 15">
  <g fill-rule="evenodd">
    <path
        d="M13.139 4.575h.361a.5.5 0 0 1 .5.5v4.25a.5.5 0 0 1-.5.5h-.361a.5.5 0 0 1-.5-.5v-4.25a.5.5 0 0 1 .5-.5zM1.36 6.225c0-.413.116-.6.544-.6H3.85c.428 0 1.015-.249 1.305-.552l3.207-3.348c.29-.303 1.224-.173 1.315-.173.09 0 .24.036.24.448v11c0 .412-.15.448-.24.448-.091 0-1.026.13-1.315-.173L5.154 9.926c-.29-.303-.877-.551-1.305-.551H1.905c-.428 0-.544-.189-.544-.6v-2.55zM8.885 0C8.458 0 7.87.248 7.58.551L4.455 3.823c-.29.304-.877.552-1.305.552H.856c-.428 0-.856.41-.856.823v4.604c0 .412.428.823.856.823H3.15c.428 0 1.015.248 1.305.552l3.125 3.271c.29.303.878.552 1.305.552H10.5c.427 0 .778-.338.778-.75V.75c0-.412-.35-.75-.778-.75H8.885z" />
    <path stroke="#C0E3FE" stroke-linecap="round" d="M13.5 1.5L.467 13.533" />
  </g>
</svg>
