<?xml version="1.0" encoding="UTF-8"?>
<svg width="15px" height="16px" viewBox="0 0 15 16" version="1.1" xmlns="http://www.w3.org/2000/svg" xmlns:xlink="http://www.w3.org/1999/xlink">
    <!-- Generator: sketchtool 42 (36781) - http://www.bohemiancoding.com/sketch -->
    <title>FCA28E2C-3F76-47E5-BE10-99CDDCD9ABE8</title>
    <desc>Created with sketchtool.</desc>
    <defs></defs>
    <g id="Symbols" stroke="none" stroke-width="1" fill="none" fill-rule="evenodd">
        <g id="03-Inputs-/-02-Text-Area-/-02-Rich-Text" transform="translate(-285.000000, -44.000000)" fill="#577083">
            <g id="Rich-Text-Editor" transform="translate(0.000000, 30.000000)">
                <g id="Actions">
                    <path d="M285,27 L287,27 L286,28 L287,29 L285,29 L285,30 L288,30 L288,28.992 L287,27.992 L288,26.992 L288,26 L285,26 L285,27 Z M285,21 L287.078,21 L285,23 C285,23 285.003,23 285,24 L288,24 L288,23 L286.078,23 L288,20.992 L288,20 L285,20 L285,21 Z M286,18 L287,18 L287,14 L285,14 L285,15 L286,15 L286,18 Z M290,17 L300,17 L300,15 L290,15 L290,17 Z M290,23 L300,23 L300,21 L290,21 L290,23 Z M290,29 L300,29 L300,27 L290,27 L290,29 Z" id="Icon-Numbers"></path>
                </g>
            </g>
        </g>
    </g>
</svg>