<?xml version="1.0" encoding="UTF-8"?>
<svg width="15px" height="14px" viewBox="0 0 15 14" version="1.1" xmlns="http://www.w3.org/2000/svg" xmlns:xlink="http://www.w3.org/1999/xlink">
    <!-- Generator: Sketch 42 (36781) - http://www.bohemiancoding.com/sketch -->
    <title>override icon</title>
    <desc>Created with Sketch.</desc>
    <defs></defs>
    <g id="Page-1" stroke="none" stroke-width="1" fill="none" fill-rule="evenodd">
        <g id="02-list-2" transform="translate(-1277.000000, -654.000000)">
            <g id="override-icon" transform="translate(1277.000000, 654.000000)">
                <path d="M14,8 L14,9.5 C14,9.776 13.776,10 13.5,10 L1.5,10 C1.224,10 1,9.776 1,9.5 L1,8 L1,1.5 C1,1.224 1.224,1 1.5,1 L13.5,1 C13.776,1 14,1.224 14,1.5 L14,8 Z M13.5,0 L1.5,0 C0.673,0 0,0.673 0,1.5 L0,9.5 C0,10.327 0.673,11 1.5,11 L7,11 L7,13 L5,13 L5,14 L10,14 L10,13 L8,13 L8,11 L13.5,11 C14.327,11 15,10.327 15,9.5 L15,1.5 C15,0.673 14.327,0 13.5,0 L13.5,0 Z" id="Fill-1" fill="#1D2D3C"></path>
                <polyline id="Stroke-3" stroke="#123349" points="5 5.5 7 8 11 3"></polyline>
            </g>
        </g>
    </g>
</svg>