<?xml version="1.0" encoding="UTF-8" standalone="no"?>
<svg width="14px" height="14px" viewBox="0 0 14 14" version="1.1" xmlns="http://www.w3.org/2000/svg" xmlns:xlink="http://www.w3.org/1999/xlink">
    <!-- Generator: Sketch 41.1 (35376) - http://www.bohemiancoding.com/sketch -->
    <title>Pause</title>
    <desc>Created with Sketch.</desc>
    <defs></defs>
    <g id="Page-1" stroke="none" stroke-width="1" fill="none" fill-rule="evenodd">
        <g id="Desktop-1440px---inner-grid" transform="translate(-1278.000000, -594.000000)" fill="#1D2D3C">
            <g id="Tooltip" transform="translate(1248.000000, 456.000000)">
                <g id="Pause" transform="translate(30.000000, 138.000000)">
                    <polygon id="Fill-1" points="5 9.5 6 9.5 6 4.5 5 4.5"></polygon>
                    <polygon id="Fill-2" points="8 9.5 9 9.5 9 4.5 8 4.5"></polygon>
                    <path d="M7,0 C3.134,0 0,3.134 0,7 C0,10.866 3.134,14 7,14 C10.866,14 14,10.866 14,7 C14,3.134 10.866,0 7,0 M7,1 C10.308,1 13,3.692 13,7 C13,10.308 10.308,13 7,13 C3.692,13 1,10.308 1,7 C1,3.692 3.692,1 7,1" id="Fill-3"></path>
                </g>
            </g>
        </g>
    </g>
</svg>