<?xml version="1.0" encoding="UTF-8" standalone="no"?>
<svg width="15px" height="15px" viewBox="0 0 15 15" version="1.1" xmlns="http://www.w3.org/2000/svg" xmlns:xlink="http://www.w3.org/1999/xlink">
    <!-- Generator: Sketch 41.1 (35376) - http://www.bohemiancoding.com/sketch -->
    <title>Edit</title>
    <desc>Created with Sketch.</desc>
    <g id="Page-1" stroke="none" stroke-width="1" fill="none" fill-rule="evenodd">
        <g id="Desktop-1440px---inner-grid" transform="translate(-1277.000000, -477.000000)">
            <g id="Tooltip" transform="translate(1248.000000, 456.000000)">
                <g id="Edit" transform="translate(29.000000, 21.000000)">
                    <g id="Clip-2"></g>
                    <path d="M13.6997,4.6236 L12.3057,6.0196 L8.9697,2.6786 L10.3637,1.2826 C10.7997,0.8466 11.5607,0.8456 11.9977,1.2826 L13.6997,2.9866 C14.1507,3.4376 14.1507,4.1726 13.6997,4.6236 L13.6997,4.6236 Z M5.9737,12.3596 L4.6457,11.0296 L8.1557,7.5166 L7.4747,6.8346 L3.9647,10.3486 L2.6377,9.0196 L8.2887,3.3606 L11.6247,6.7006 L5.9737,12.3596 Z M1.4257,13.5736 L2.2537,9.9986 L4.9957,12.7436 L1.4257,13.5736 Z M14.3807,2.3056 L12.6787,0.6006 C11.8777,-0.2004 10.4817,-0.1994 9.6827,0.6006 L1.5127,8.7816 L-0.0003,14.9996 L6.2107,13.4856 L14.3807,5.3056 C15.2067,4.4776 15.2067,3.1326 14.3807,2.3056 L14.3807,2.3056 Z" id="Fill-1" fill="#1D2D3C"></path>
                </g>
            </g>
        </g>
    </g>
</svg>