<?xml version="1.0" encoding="utf-8"?>
<!-- Generator: Adobe Illustrator 19.0.0, SVG Export Plug-In . SVG Version: 6.00 Build 0)  -->
<!DOCTYPE svg PUBLIC "-//W3C//DTD SVG 1.1//EN" "http://www.w3.org/Graphics/SVG/1.1/DTD/svg11.dtd">
<svg version="1.1" id="Layer_1" xmlns="http://www.w3.org/2000/svg" xmlns:xlink="http://www.w3.org/1999/xlink" x="0px" y="0px"
	 viewBox="5 -4 59 59" style="enable-background:new 5 -4 59 59;" xml:space="preserve">
<style type="text/css">
	.st0{fill:#555555;}
</style>
<g>
	<path class="st0" d="M54.6,25.9l8-8c0.9-0.9,1.4-2.1,1.4-3.3c0-1.3-0.5-2.5-1.4-3.3L48.7-2.6C47.8-3.5,46.6-4,45.3-4
		c-1.3,0-2.5,0.5-3.3,1.4l-8,8l-8.4-8.4c-1.2-1.2-3.2-1.2-4.4,0L5.9,12.3C5.3,12.8,5,13.6,5,14.5c0,0.8,0.3,1.6,0.9,2.2l8.4,8.4
		l-8,8c-1.8,1.8-1.8,4.8,0,6.7l13.9,13.9c0.9,0.9,2.1,1.4,3.3,1.4c1.2,0,2.4-0.5,3.3-1.4l8-8l8.4,8.4c0.6,0.6,1.4,0.9,2.2,0.9
		c0.8,0,1.6-0.3,2.2-0.9L63,38.7c0.6-0.6,0.9-1.4,0.9-2.2c0-0.8-0.3-1.6-0.9-2.2L54.6,25.9z M8,14.5v-0.2L23.3-1c0,0,0.1,0,0.2,0
		l8.4,8.4L16.4,23L8,14.5z M24.8,51.5c-0.7,0.7-1.8,0.7-2.4,0L8.5,37.6c-0.7-0.7-0.7-1.8,0-2.4L44.1-0.5C44.5-0.8,44.9-1,45.3-1
		c0.4,0,0.9,0.2,1.2,0.5l13.9,13.9c0.7,0.7,0.7,1.8,0,2.4L24.8,51.5z M60.9,36.6L45.6,52c0,0-0.1,0-0.2,0L37,43.5L52.5,28l8.4,8.4
		C61,36.5,61,36.6,60.9,36.6z"/>
	<path class="st0" d="M34.8,13.1c-0.2-0.2-0.5-0.2-0.7,0l-12,12c-0.2,0.2-0.2,0.5,0,0.7l12,12c0.1,0.1,0.2,0.1,0.4,0.1
		s0.3,0,0.4-0.1l12-12c0.2-0.2,0.2-0.5,0-0.7L34.8,13.1z M34.5,36.8L23.2,25.5l11.3-11.3l11.3,11.3L34.5,36.8z"/>
	<circle class="st0" cx="46.5" cy="6" r="1.5"/>
	<circle class="st0" cx="41.2" cy="11.2" r="1.5"/>
	<circle class="st0" cx="54" cy="13.5" r="1.5"/>
	<circle class="st0" cx="48.7" cy="18.8" r="1.5"/>
	<circle class="st0" cx="47.6" cy="12.4" r="1.5"/>
	<circle class="st0" cx="20.2" cy="32.2" r="1.5"/>
	<circle class="st0" cx="14.9" cy="37.5" r="1.5"/>
	<circle class="st0" cx="27.7" cy="39.8" r="1.5"/>
	<circle class="st0" cx="22.4" cy="45" r="1.5"/>
	<circle class="st0" cx="21.3" cy="38.6" r="1.5"/>
</g>
</svg>
