<?xml version="1.0" encoding="UTF-8"?>
<svg width="14px" height="14px" viewBox="0 0 14 14" version="1.1" xmlns="http://www.w3.org/2000/svg" xmlns:xlink="http://www.w3.org/1999/xlink">
    <!-- Generator: Sketch 42 (36781) - http://www.bohemiancoding.com/sketch -->
    <title>Paly icon</title>
    <desc>Created with Sketch.</desc>
    <defs></defs>
    <g id="Page-1" stroke="none" stroke-width="1" fill="none" fill-rule="evenodd">
        <g id="02-list-2" transform="translate(-1277.000000, -545.000000)">
            <g id="Tooltip-Copy" transform="translate(1247.000000, 429.000000)">
                <g id="Paly-icon" transform="translate(30.000000, 116.000000)">
                    <path d="M7,0 C3.134,0 0,3.134 0,7 C0,10.866 3.134,14 7,14 C10.866,14 14,10.866 14,7 C14,3.134 10.866,0 7,0 M7,1 C10.308,1 13,3.692 13,7 C13,10.308 10.308,13 7,13 C3.692,13 1,10.308 1,7 C1,3.692 3.692,1 7,1" id="Fill-3" fill="#1D2D3C"></path>
                    <polygon id="Path-3" stroke="#162D3D" points="5 4 5 10 10 7"></polygon>
                </g>
            </g>
        </g>
    </g>
</svg>