<?xml version="1.0" encoding="utf-8"?>
<!-- Generator: Adobe Illustrator 19.0.0, SVG Export Plug-In . SVG Version: 6.00 Build 0)  -->
<!DOCTYPE svg PUBLIC "-//W3C//DTD SVG 1.1//EN" "http://www.w3.org/Graphics/SVG/1.1/DTD/svg11.dtd">
<svg version="1.1" id="Layer_1" xmlns:sketch="http://www.bohemiancoding.com/sketch/ns"
	 xmlns="http://www.w3.org/2000/svg" xmlns:xlink="http://www.w3.org/1999/xlink" x="0px" y="0px" viewBox="-13.1 16.8 18.1 18.1"
	 style="enable-background:new -13.1 16.8 18.1 18.1;" xml:space="preserve">
<style type="text/css">
	.st0{fill:#6EB7FD;}
</style>
<title>plus</title>
<desc>Created with Sketch.</desc>
<g>
	<polygon class="st0" points="-2.9,22.3 -4.8,22.3 -4.8,25 -7.6,25 -7.6,27 -4.8,27 -4.8,29.8 -2.9,29.8 -2.9,27 -0.1,27 -0.1,25 
		-2.9,25 	"/>
	<path class="st0" d="M-4.1,16.8c-5,0-9,4.1-9,9c0,5,4.1,9.1,9,9.1s9-4.1,9-9.1C5,20.8,0.9,16.8-4.1,16.8z M-4.1,33.9
		c-4.4,0-8-3.6-8-8.1c0-4.4,3.6-8,8-8s8,3.6,8,8C4,30.3,0.4,33.9-4.1,33.9z"/>
</g>
<path id="Fill-2" sketch:type="MSShapeGroup" class="st0" d="M-7,25.8h6.2v0.4H-7V25.8z"/>
</svg>
