<?xml version="1.0" encoding="UTF-8"?>
<svg width="12px" height="12px" viewBox="0 0 12 12" version="1.1" xmlns="http://www.w3.org/2000/svg" xmlns:xlink="http://www.w3.org/1999/xlink">
    <!-- Generator: Sketch 41 (35326) - http://www.bohemiancoding.com/sketch -->
    <title>Combined Shape</title>
    <desc>Created with Sketch.</desc>
    <defs></defs>
    <g id="Page-1" stroke="none" stroke-width="1" fill="none" fill-rule="evenodd">
        <g id="Artboard" transform="translate(-10.000000, -10.000000)" fill="#FFFFFF">
            <path d="M18,9.9996 L18,11.0006 L20.293,11.0006 L15.646,15.6456 L16.354,16.3536 L21,11.7066 L21,13.9996 L22,13.9996 L22,9.9996 L18,9.9996 Z M21,20.2 C21,20.642 20.642,21 20.2,21 L11.8,21 C11.358,21 11,20.642 11,20.2 L11,11.8 C11,11.358 11.358,11 11.8,11 L16,11 L16,10 L11.8,10 C10.807,10 10,10.807 10,11.8 L10,20.2 C10,21.192 10.807,22 11.8,22 L20.2,22 C21.193,22 22,21.192 22,20.2 L22,16 L21,16 L21,20.2 Z" id="Combined-Shape"></path>
        </g>
    </g>
</svg>