<?xml version="1.0" encoding="UTF-8" standalone="no"?>
<svg width="14px" height="14px" viewBox="0 0 14 14" version="1.1" xmlns="http://www.w3.org/2000/svg" xmlns:xlink="http://www.w3.org/1999/xlink">
    <g id="Applications-Tab" stroke="none" stroke-width="1" fill="none" fill-rule="evenodd">
        <g id="Application-default-App" transform="translate(-1104.000000, -478.000000)" fill="#3899EC">
            <g id="1260-starter">
                <g id="Form/-Card-" transform="translate(246.000000, 173.000000)">
                    <path d="M867,314.875 L870.25,314.917 C869.044728,316.766925 866.985918,317.882114 864.778,317.881 C861.601352,317.759953 859.072542,315.178468 859.017,312 L858.017,312 C857.96776,313.818909 858.660426,315.579616 859.935789,316.877423 C861.211152,318.17523 862.959509,318.898504 864.779,318.881 C867.238559,318.831112 869.536115,317.644109 871,315.667 L871,319 L872,319 L872,314 L867,314 L867,314.875 Z M863,309.125 L859.758,309.084 C860.964839,307.233617 863.024842,306.118221 865.234,306.119 C868.410424,306.242395 870.939349,308.821759 871,312 L872,312 C872.046738,310.180594 871.352292,308.42027 870.075956,307.122815 C868.79962,305.825361 867.050928,305.102123 865.231,305.119 C862.768783,305.169292 860.468343,306.355878 859,308.333 L859,305 L858,305 L858,310 L863,310 L863,309.125 Z" id="change.svg"></path>
                </g>
            </g>
        </g>
    </g>
</svg>