<?xml version="1.0" encoding="utf-8"?>
<!-- Generated by IcoMoon.io -->
<!DOCTYPE svg PUBLIC "-//W3C//DTD SVG 1.1//EN" "http://www.w3.org/Graphics/SVG/1.1/DTD/svg11.dtd">
<svg version="1.1" xmlns="http://www.w3.org/2000/svg" xmlns:xlink="http://www.w3.org/1999/xlink" width="717" height="1024" viewBox="0 0 717 1024">
<g id="icomoon-ignore">
</g>
<path d="M481.311 665.782l153.6 153.6v-36.204l-153.6 153.6c-9.997 9.997-9.997 26.206 0 36.204s26.206 9.997 36.204 0l153.6-153.6c9.997-9.997 9.997-26.206 0-36.204l-153.6-153.6c-9.997-9.997-26.206-9.997-36.204 0s-9.997 26.206 0 36.204v0z"></path>
<path d="M653.012 775.68h-281.6c-155.513 0-281.6-126.087-281.6-281.6 0-14.138-11.462-25.6-25.6-25.6s-25.6 11.462-25.6 25.6c0 183.79 149.010 332.8 332.8 332.8h281.6c14.138 0 25.6-11.462 25.6-25.6s-11.462-25.6-25.6-25.6v0z"></path>
<path d="M236.209 370.689l-153.6-166.599v34.705l153.6-166.599c9.584-10.395 8.926-26.59-1.469-36.174s-26.59-8.926-36.174 1.469l-153.6 166.599c-9.038 9.803-9.038 24.902 0 34.705l153.6 166.599c9.584 10.395 25.779 11.052 36.174 1.469s11.052-25.779 1.469-36.174v0z"></path>
<path d="M63.788 247.043h281.6c155.027 0 281.6 137.285 281.6 307.599 0 14.138 11.462 25.6 25.6 25.6s25.6-11.462 25.6-25.6c0-197.704-148.525-358.799-332.8-358.799h-281.6c-14.138 0-25.6 11.462-25.6 25.6s11.462 25.6 25.6 25.6v0z"></path>
</svg>
