<?xml version="1.0" encoding="UTF-8" standalone="no"?>
<svg width="19px" height="21px" viewBox="0 0 19 21" version="1.1" xmlns="http://www.w3.org/2000/svg" xmlns:xlink="http://www.w3.org/1999/xlink">
    <g id="images-and-wix-logo" stroke="none" stroke-width="1" fill="none" fill-rule="evenodd">
        <g id="app-icon" transform="translate(0.000000, -2.000000)">
            <path d="M21.2246,8.7946 L19.7776,10.2416 L16.3136,6.7776 L17.7606,5.3306 C18.2136,4.8776 19.0036,4.8766 19.4566,5.3306 L21.2246,7.0976 C21.6926,7.5656 21.6926,8.3266 21.2246,8.7946 L21.2246,8.7946 Z M13.2026,16.8166 L11.8236,15.4376 L15.4676,11.7946 L14.7606,11.0876 L11.1166,14.7306 L9.7386,13.3526 L15.6066,7.4846 L19.0706,10.9486 L13.2026,16.8166 Z M7.9996,18.5546 L9.3396,14.3686 L12.1866,17.2156 L7.9996,18.5546 Z M21.9316,6.3906 L20.1636,4.6236 C19.3326,3.7916 17.8826,3.7926 17.0536,4.6236 L15.6066,6.0706 L15.2526,6.4236 L8.5706,13.1066 L6.9996,19.5546 L13.4486,17.9846 L20.1306,11.3026 L20.1306,11.3026 L21.9316,9.5016 C22.7886,8.6436 22.7886,7.2486 21.9316,6.3906 L21.9316,6.3906 Z" id="Fill-1" fill="#B6C1CD" transform="translate(14.786975, 11.777287) rotate(-45.000000) translate(-14.786975, -11.777287) "></path>
            <path d="M6.5,3.5 L6.5,21.5 L3.00925446,21.5 C1.62042451,21.5 0.5,20.3848164 0.5,18.9998779 L0.5,6.00012207 C0.5,4.62056442 1.62458979,3.5 3.00925446,3.5 L6.5,3.5 Z" id="Rectangle-4" stroke="#B6C1CD"></path>
            <rect id="Rectangle-2" fill="#B6C1CD" x="5.09090909" y="4.83870968" width="1.90909091" height="1"></rect>
            <rect id="Rectangle-2" fill="#B6C1CD" x="5.09090909" y="8.51612903" width="1.90909091" height="1"></rect>
            <rect id="Rectangle-2" fill="#B6C1CD" x="3.18181818" y="6.67741935" width="3.81818182" height="1"></rect>
            <rect id="Rectangle-2" fill="#B6C1CD" x="3.18181818" y="10.3548387" width="3.81818182" height="1"></rect>
            <rect id="Rectangle-2" fill="#B6C1CD" x="5.09090909" y="12.1935484" width="1.90909091" height="1"></rect>
            <rect id="Rectangle-2" fill="#B6C1CD" x="3.18181818" y="14.0322581" width="3.81818182" height="1"></rect>
            <rect id="Rectangle-2" fill="#B6C1CD" x="5.09090909" y="15.8709677" width="1.90909091" height="1"></rect>
            <rect id="Rectangle-2" fill="#B6C1CD" x="3.18181818" y="17.7096774" width="3.81818182" height="1"></rect>
            <rect id="Rectangle-2" fill="#B6C1CD" x="5.09090909" y="19.5483871" width="1.90909091" height="1"></rect>
        </g>
    </g>
</svg>