<svg xmlns="http://www.w3.org/2000/svg" width="24" height="24" viewBox="0 0 24 24">
    <path d="M13.9196323,4.77122102 L12.7905558,4.77122102 C11.1105563,4.77122102 9.90724076,6.29629405 9.90724076,9.08012855 C9.90724076,11.746467 11.1868738,13.1862354 13.016216,13.1862354 L13.9196323,13.1862354 L13.9196323,4.77122102 Z M7.52643294,9.33350247 C7.52643294,5.33235712 9.74096904,2.85 12.8657759,2.85 L15.7241372,2.85 C15.9852337,2.85 16.15,2.99420721 16.15,3.25354307 L16.15,21.7978759 C16.15,22.0137955 16.0271301,22.15 15.7993573,22.15 L14.2444181,22.15 C14.0661013,22.15 13.9196323,21.9870901 13.9196323,21.823078 L13.9196323,15.1072873 L12.9076479,15.1072873 L9.4704007,21.878306 C9.39735822,22.0627542 9.2434629,22.15 9.03005778,22.15 L7.25013011,22.15 C6.92083737,22.15 6.74604211,21.837191 6.91864226,21.5227719 L10.6762407,14.6718376 C8.64507854,13.7066675 7.52643294,11.8228329 7.52643294,9.33350247 Z"/>
</svg>
