<?xml version="1.0" encoding="UTF-8" standalone="no"?>
<svg width="19px" height="20px" viewBox="0 0 19 20" version="1.1" xmlns="http://www.w3.org/2000/svg" xmlns:xlink="http://www.w3.org/1999/xlink">
    <!-- Generator: Sketch 3.8.3 (29802) - http://www.bohemiancoding.com/sketch -->
    <title>Group</title>
    <desc>Created with Sketch.</desc>
    <defs></defs>
    <g id="Page-1" stroke="none" stroke-width="1" fill="none" fill-rule="evenodd">
        <g id="Group" fill="#979797">
            <path d="M9,17.65 C13.7772631,17.65 17.65,13.7772631 17.65,9 C17.65,4.22273691 13.7772631,0.35 9,0.35 C4.22273691,0.35 0.35,4.22273691 0.35,9 C0.35,13.7772631 4.22273691,17.65 9,17.65 L9,17.65 L9,17.65 Z M9,16.35 C4.94070709,16.35 1.65,13.0592929 1.65,9 C1.65,4.94070709 4.94070709,1.65 9,1.65 C13.0592929,1.65 16.35,4.94070709 16.35,9 C16.35,13.0592929 13.0592929,16.35 9,16.35 L9,16.35 L9,16.35 Z" id="Oval-1"></path>
            <polygon id="Line" points="14.0403806 15.9596194 17.5759145 19.4951533 18.0355339 19.9547727 18.9547727 19.0355339 18.4951533 18.5759145 14.9596194 15.0403806 14.5 14.5807612 13.5807612 15.5"></polygon>
        </g>
    </g>
</svg>