<?xml version="1.0" encoding="utf-8"?>
<svg width="17.593" height="17.531" viewBox="0 0 17.593 17.531" preserveAspectRatio="xMidYMid" xmlns="http://www.w3.org/2000/svg">
  <defs>
    <style>
      .cls-1 {
        fill: #3899ec;
        fill-rule: evenodd;
      }
    </style>
  </defs>
  <path d="M 17.588 16.83 L 16.89 17.528 L 12.477 13.116 C 11.15 14.293 9.423 15.031 7.509 15.031 C 3.357 15.031 -0.008 11.665 -0.008 7.514 C -0.008 3.362 3.357 -0.004 7.509 -0.004 C 11.661 -0.004 15.026 3.362 15.026 7.514 C 15.026 9.395 14.311 11.093 13.169 12.412 L 17.588 16.83 Z M 13.941 7.407 C 13.941 3.862 11.068 0.989 7.524 0.989 C 3.98 0.989 1.106 3.862 1.106 7.407 C 1.106 10.951 3.98 13.824 7.524 13.824 C 11.068 13.824 13.941 10.951 13.941 7.407 Z" class="cls-1" transform="matrix(0, 1, -1, 0, 17.552, -0.027999)"/>
</svg>