<?xml version="1.0" encoding="UTF-8"?>
<svg width="24px" height="24px" viewBox="0 0 24 24" version="1.1"
     xmlns="http://www.w3.org/2000/svg"
     xmlns:xlink="http://www.w3.org/1999/xlink">
  <!-- Generator: Sketch 44 (41411) - http://www.bohemiancoding.com/sketch -->
  <title>--</title>
  <desc>Created with Sketch.</desc>
  <g id="Marketplaces" stroke="none" stroke-width="1"
     fill-rule="evenodd">
    <g id="Marketplace-Card-Redlines"
       transform="translate(-844.000000, -367.000000)">
      <g id="connected-MP-card" transform="translate(174.000000, 346.000000)">
        <g id="Tooltip-on-3-dots" transform="translate(648.000000, 0.000000)">
          <g id="row-2" transform="translate(22.000000, 21.000000)">
            <g id="01-General-/-Primitives-/-Icons-/-Settings"
               transform="translate(1.000000, 1.000000)">
              <path fill-rule="evenodd"
                    d="M11,12.5 C10.172,12.5 9.5,11.828 9.5,11 C9.5,10.172 10.172,9.5 11,9.5 C11.828,9.5 12.5,10.172 12.5,11 C12.5,11.828 11.828,12.5 11,12.5 L11,12.5 Z M10.975,8.577 C9.627,8.577 8.536,9.667 8.536,11.012 C8.536,12.358 9.627,13.448 10.975,13.448 C12.32,13.448 13.411,12.358 13.411,11.012 C13.411,9.667 12.32,8.577 10.975,8.577 L10.975,8.577 Z M16.467,11.987 C16.12,12.056 15.835,12.304 15.719,12.639 C15.654,12.823 15.58,13.002 15.495,13.176 C15.341,13.495 15.366,13.872 15.562,14.167 L16.431,15.469 L15.469,16.431 L14.167,15.563 C14,15.452 13.807,15.395 13.612,15.395 C13.464,15.395 13.315,15.428 13.177,15.495 C13.004,15.579 12.824,15.654 12.64,15.719 C12.305,15.835 12.057,16.12 11.987,16.467 L11.68,18 L10.32,18 L10.014,16.467 C9.944,16.12 9.696,15.835 9.361,15.719 C9.177,15.654 8.997,15.58 8.824,15.495 C8.686,15.428 8.537,15.395 8.388,15.395 C8.193,15.395 8,15.452 7.833,15.563 L6.531,16.431 L5.569,15.469 L6.438,14.167 C6.633,13.872 6.659,13.496 6.505,13.177 C6.422,13.003 6.346,12.824 6.281,12.639 C6.165,12.305 5.881,12.057 5.533,11.987 L4.001,11.68 L4,10.32 L5.533,10.013 C5.881,9.944 6.165,9.696 6.281,9.361 C6.346,9.177 6.421,8.998 6.505,8.824 C6.66,8.505 6.634,8.128 6.438,7.833 L5.569,6.531 L6.531,5.569 L7.833,6.437 C8,6.548 8.193,6.605 8.388,6.605 C8.536,6.605 8.686,6.572 8.823,6.505 C8.996,6.421 9.176,6.346 9.361,6.281 C9.695,6.165 9.943,5.88 10.013,5.533 L10.32,4 L11.68,4 L11.987,5.533 C12.057,5.88 12.305,6.165 12.639,6.281 C12.823,6.346 13.003,6.42 13.176,6.505 C13.314,6.572 13.464,6.605 13.612,6.605 C13.807,6.605 14,6.548 14.167,6.437 L15.469,5.569 L16.431,6.531 L15.562,7.833 C15.367,8.128 15.341,8.504 15.495,8.823 C15.579,8.997 15.654,9.176 15.719,9.361 C15.835,9.695 16.12,9.943 16.467,10.013 L18,10.32 L18,11.68 L16.467,11.987 Z M18.196,9.339 L16.663,9.032 C16.586,8.811 16.496,8.596 16.396,8.388 L17.263,7.086 C17.527,6.689 17.475,6.161 17.138,5.824 L16.176,4.862 C15.982,4.669 15.727,4.569 15.469,4.569 C15.276,4.569 15.083,4.625 14.914,4.737 L13.612,5.605 C13.404,5.504 13.189,5.414 12.968,5.337 L12.661,3.804 C12.567,3.336 12.156,3 11.68,3 L10.32,3 C9.844,3 9.433,3.336 9.339,3.804 L9.032,5.337 C8.811,5.414 8.596,5.504 8.388,5.605 L7.086,4.737 C6.917,4.625 6.724,4.569 6.532,4.569 C6.273,4.569 6.018,4.669 5.824,4.862 L4.862,5.824 C4.525,6.161 4.473,6.689 4.737,7.086 L5.605,8.388 C5.504,8.596 5.414,8.811 5.337,9.033 L3.805,9.339 C3.337,9.433 3,9.843 3,10.32 L3,11.68 C3,12.157 3.337,12.567 3.805,12.661 L5.337,12.968 C5.414,13.189 5.504,13.404 5.605,13.612 L4.737,14.914 C4.473,15.311 4.525,15.839 4.862,16.176 L5.824,17.138 C6.018,17.331 6.273,17.431 6.532,17.431 C6.724,17.431 6.917,17.375 7.086,17.263 L8.388,16.395 C8.597,16.496 8.812,16.586 9.033,16.663 L9.339,18.196 C9.433,18.664 9.844,19 10.32,19 L11.68,19 C12.156,19 12.567,18.664 12.661,18.196 L12.968,16.663 C13.189,16.586 13.404,16.496 13.612,16.395 L14.914,17.263 C15.084,17.375 15.276,17.431 15.469,17.431 C15.727,17.431 15.982,17.331 16.176,17.138 L17.138,16.176 C17.475,15.839 17.527,15.311 17.263,14.914 L16.396,13.612 C16.496,13.404 16.586,13.189 16.663,12.967 L18.196,12.661 C18.664,12.567 19,12.157 19,11.68 L19,10.32 C19,9.843 18.664,9.433 18.196,9.339 L18.196,9.339 Z"
                    id="path-1"></path>
            </g>
          </g>
        </g>
      </g>
    </g>
  </g>
</svg>
