<?xml version="1.0" encoding="UTF-8" standalone="no"?>
<svg width="14px" height="14px" viewBox="0 0 14 14" version="1.1" xmlns="http://www.w3.org/2000/svg" xmlns:xlink="http://www.w3.org/1999/xlink">
    <!-- Generator: Sketch 41.1 (35376) - http://www.bohemiancoding.com/sketch -->
    <title>Terminate</title>
    <desc>Created with Sketch.</desc>
    <defs></defs>
    <g id="Page-1" stroke="none" stroke-width="1" fill="none" fill-rule="evenodd">
        <g id="Desktop-1440px---inner-grid" transform="translate(-1278.000000, -626.000000)" fill="#1D2D3C">
            <g id="Tooltip" transform="translate(1248.000000, 456.000000)">
                <g id="Terminate" transform="translate(30.000000, 170.000000)">
                    <polygon id="Fill-1" points="4.5858 3.8787 3.8788 4.5857 9.4138 10.1217 10.1218 9.4147"></polygon>
                    <polygon id="Fill-2" points="9.4142 3.8787 3.8782 9.4147 4.5862 10.1217 10.1212 4.5857"></polygon>
                    <path d="M7,0 C3.134,0 0,3.134 0,7 C0,10.866 3.134,14 7,14 C10.866,14 14,10.866 14,7 C14,3.134 10.866,0 7,0 M7,1 C10.308,1 13,3.692 13,7 C13,10.308 10.308,13 7,13 C3.692,13 1,10.308 1,7 C1,3.692 3.692,1 7,1" id="Fill-3"></path>
                </g>
            </g>
        </g>
    </g>
</svg>