<?xml version="1.0" encoding="UTF-8" standalone="no"?>
<svg width="13px" height="15px" viewBox="0 0 13 15" version="1.1" xmlns="http://www.w3.org/2000/svg" xmlns:xlink="http://www.w3.org/1999/xlink">
    <title>remove</title>
    <defs></defs>
    <g id="Sketch-02" stroke="none" stroke-width="1" fill="none" fill-rule="evenodd">
        <g id="BusinessInfo-08" transform="translate(-1149.000000, -239.000000)" fill="#FFFFFF">
            <g id="remove" transform="translate(1149.000000, 239.000000)">
                <path d="M1,3 L1,3 L2,2 L2,12.9972399 C2,13.5540542 2.444032,14 2.99201702,14 L10.007983,14 C10.5498526,14 11,13.5487268 11,12.9972399 L11,2 L12,3 L1,3 Z M1,2 L12,2 L12,12.9972399 C12,14.1033337 11.0998238,15 10.007983,15 L2.99201702,15 C1.8918564,15 1,14.1064574 1,12.9972399 L1,2 L1,2 Z" id="Rectangle-1408"></path>
                <path d="M9,2 L9,2 L8,3 L8,1.5 C8,1.22069846 7.77868867,1 7.49983513,1 L5.50016487,1 C5.22538294,1 5,1.22508089 5,1.5 L5,3 L4,2 L9,2 Z M9,3 L4,3 L4,1.5 C4,0.671572875 4.67432225,0 5.50016487,0 L7.49983513,4.4408921e-16 C8.32835331,4.4408921e-16 9,0.665797234 9,1.5 L9,3 L9,3 Z" id="Rectangle-1408"></path>
                <polygon id="Line" points="4 6.5 4 10.5 4 11 5 11 5 10.5 5 6.5 5 6 4 6"></polygon>
                <polygon id="Line" points="6 6.5 6 10.5 6 11 7 11 7 10.5 7 6.5 7 6 6 6"></polygon>
                <polygon id="Line" points="8 6.5 8 10.5 8 11 9 11 9 10.5 9 6.5 9 6 8 6"></polygon>
                <polygon id="Line" points="0.5 3 12.5 3 13 3 13 2 12.5 2 0.5 2 0 2 0 3"></polygon>
            </g>
        </g>
    </g>
</svg>
