<?xml version="1.0" encoding="UTF-8" standalone="no"?>
<svg width="13px" height="15px" viewBox="0 0 13 15" version="1.1" xmlns="http://www.w3.org/2000/svg" xmlns:xlink="http://www.w3.org/1999/xlink">
    <!-- Generator: Sketch 41.1 (35376) - http://www.bohemiancoding.com/sketch -->
    <title>Page 1</title>
    <desc>Created with Sketch.</desc>
    <defs></defs>
    <g id="Page-1" stroke="none" stroke-width="1" fill="none" fill-rule="evenodd">
        <g id="Desktop-1440px---inner-grid-Copy" transform="translate(-1497.000000, -373.000000)" fill="#1D2D3C">
            <path d="M1508,385 C1508,386.105 1507.105,387 1506,387 L1501,387 C1499.895,387 1499,386.105 1499,385 L1499,376 L1508,376 L1508,385 Z M1502,374.5 C1502,374.229 1502.24,374 1502.525,374 L1504.392,374 C1504.693,374 1505,374.252 1505,374.5 L1505,375 L1502,375 L1502,374.5 Z M1506,375 L1506,374.5 C1506,373.701 1505.249,373 1504.392,373 L1502.525,373 C1501.684,373 1501,373.673 1501,374.5 L1501,375 L1497,375 L1497,376 L1498,376 L1498,385 C1498,386.657 1499.343,388 1501,388 L1506,388 C1507.657,388 1509,386.657 1509,385 L1509,376 L1510,376 L1510,375 L1506,375 Z M1505,384 L1506,384 L1506,378 L1505,378 L1505,384 Z M1503,384 L1504,384 L1504,378 L1503,378 L1503,384 Z M1501,384 L1502,384 L1502,378 L1501,378 L1501,384 Z" id="Page-1"></path>
        </g>
    </g>
</svg>