<?xml version="1.0" encoding="UTF-8"?>
<svg width="11px" height="15px" viewBox="0 0 11 15" version="1.1" xmlns="http://www.w3.org/2000/svg" xmlns:xlink="http://www.w3.org/1999/xlink">
    <!-- Generator: sketchtool 42 (36781) - http://www.bohemiancoding.com/sketch -->
    <title>BF735090-699F-4312-941D-FB08914A7FCC</title>
    <desc>Created with sketchtool.</desc>
    <defs></defs>
    <g id="Symbols" stroke="none" stroke-width="1" fill="none" fill-rule="evenodd">
        <g id="03-Inputs-/-02-Text-Area-/-02-Rich-Text" transform="translate(-128.000000, -44.000000)" fill="#577083">
            <g id="Rich-Text-Editor" transform="translate(0.000000, 30.000000)">
                <g id="Actions">
                    <path d="M128,29 L139,29 L139,27 L128,27 L128,29 Z M133.5,25.233 C136.066,25.233 138,23.176 138,20.45 L138,15 C138,14.448 137.553,14 137,14 C136.448,14 136,14.448 136,15 L136,20.45 C136,21.832 135.141,23.233 133.5,23.233 C131.859,23.233 131,21.832 131,20.45 L131,15 C131,14.448 130.553,14 130,14 C129.448,14 129,14.448 129,15 L129,20.45 C129,23.176 130.935,25.233 133.5,25.233 L133.5,25.233 Z" id="Icon-Underline"></path>
                </g>
            </g>
        </g>
    </g>
</svg>