<?xml version="1.0" encoding="UTF-8"?>
<svg width="15px" height="15px" viewBox="0 0 15 15" version="1.1" xmlns="http://www.w3.org/2000/svg" xmlns:xlink="http://www.w3.org/1999/xlink">
    <!-- Generator: sketchtool 42 (36781) - http://www.bohemiancoding.com/sketch -->
    <title>BE16673B-D7A4-4DE1-B444-0BBF8DA9EBF5</title>
    <desc>Created with sketchtool.</desc>
    <defs></defs>
    <g id="Symbols" stroke="none" stroke-width="1" fill="none" fill-rule="evenodd">
        <g id="03-Inputs-/-02-Text-Area-/-02-Rich-Text" transform="translate(-232.000000, -44.000000)" fill="#577083">
            <g id="Rich-Text-Editor" transform="translate(0.000000, 30.000000)">
                <g id="Actions">
                    <path d="M237,29 L247,29 L247,27 L237,27 L237,29 Z M232,29 L235,29 L235,26 L232,26 L232,29 Z M232,23 L235,23 L235,20 L232,20 L232,23 Z M232,17 L235,17 L235,14 L232,14 L232,17 Z M237,17 L247,17 L247,15 L237,15 L237,17 Z M237,23 L247,23 L247,21 L237,21 L237,23 Z" id="Icon-Bulletpoints"></path>
                </g>
            </g>
        </g>
    </g>
</svg>