<?xml version="1.0" encoding="UTF-8" standalone="no"?>
<svg width="15px" height="15px" viewBox="0 0 15 15" version="1.1" xmlns="http://www.w3.org/2000/svg" xmlns:xlink="http://www.w3.org/1999/xlink">
    <g id="Symbols" stroke="none" stroke-width="1" fill="none" fill-rule="evenodd">
        <g id="04-Buttons-/-03-Small-/-Blue-/-01-Default-with-icon" transform="translate(-24.000000, -7.000000)" fill="#FFFFFF">
            <g id="Page-1" transform="translate(24.000000, 7.000000)">
                <path d="M14,8.0371 L14,11.5371 C14,12.3641 13.327,13.0371 12.5,13.0371 L2.5,13.0371 C1.673,13.0371 1,12.3641 1,11.5371 L1,8.0371 L0,8.0371 L0,11.5371 C0,12.9151 1.122,14.0371 2.5,14.0371 L12.5,14.0371 C13.878,14.0371 15,12.9151 15,11.5371 L15,8.0371 L14,8.0371 Z" id="Fill-1"></path>
                <polygon id="Fill-3" points="7 1.6232 7 11.0372 8 11.0372 8 1.6232 10.718 4.3212 11.282 3.7532 7.5 0.0002 3.718 3.7532 4.282 4.3212"></polygon>
            </g>
        </g>
    </g>
</svg>