<?xml version="1.0" encoding="UTF-8" standalone="no"?>
<svg width="18px" height="20px" viewBox="0 0 18 20" version="1.1" xmlns="http://www.w3.org/2000/svg" xmlns:xlink="http://www.w3.org/1999/xlink">
    <g id="Symbols" stroke="none" stroke-width="1" fill="none" fill-rule="evenodd">
        <g id="05-Tooltips-/-04-Big-Menu-02-app" transform="translate(-24.000000, -73.000000)" fill="#20455E">
            <g id="Men" transform="translate(24.000000, 73.000000)">
                <path d="M8.904364,0.00801200027 C5.69462523,0.00801200027 3.00583172,2.54012084 3.00583172,5.67467867 C3.00583172,5.77581475 3.00195029,5.85930924 2.98809346,6.09511386 C2.98267575,6.18767187 2.98036464,6.22894704 2.97771794,6.28279368 C2.96065339,6.62996877 2.96688538,6.86691281 3.01360998,7.0797098 L3.3381434,7.008012 L3.02304396,6.90212518 C2.98383713,7.0195159 2.97807331,7.13755938 2.99925954,7.25802662 C3.01690328,7.35835091 3.03083995,7.39739877 3.10341434,7.57913219 C3.15427553,7.70649364 3.17198756,7.77178524 3.17198756,7.84134533 C3.17198756,8.92225169 3.63025248,9.84134533 4.33507843,9.84134533 C4.48498073,9.84134533 4.61972894,9.79326925 4.7558204,9.70881823 L4.58098907,9.42534533 L4.25843614,9.50553268 C4.91468421,12.1615413 6.75997341,14.008012 8.904364,14.008012 C11.1056838,14.008012 13.325335,11.9997339 13.9623583,9.42153268 L13.6398054,9.34134533 L13.4649741,9.62481823 C13.6010655,9.70926925 13.7358137,9.75734533 13.885716,9.75734533 C14.5886118,9.75734533 14.9690521,8.87818415 14.9690521,7.758012 C14.9690521,7.39045614 14.9144591,7.03641184 14.8125074,6.7288418 L14.4971695,6.834012 L14.8218236,6.90515804 C14.9188433,6.45971101 14.9690521,6.06714917 14.9690521,5.67467867 C14.9690521,2.56439267 12.1438037,0.00801200027 8.904364,0.00801200027 L8.904364,0.00801200027 Z M14.1725154,6.76286596 C14.1597645,6.82140959 14.1629828,6.88231853 14.1818317,6.9391822 C14.2607786,7.17735125 14.3044288,7.46042897 14.3044288,7.758012 C14.3044288,8.54871883 14.0699059,9.09067867 13.885716,9.09067867 C13.8770278,9.09067867 13.85462,9.08268392 13.8146367,9.05787243 C13.6230111,8.93895991 13.3714585,9.04177177 13.3172525,9.26115799 C12.7495688,11.5587231 10.779324,13.3413453 8.904364,13.3413453 C7.10321466,13.3413453 5.49275386,11.7298534 4.90354201,9.34515799 C4.84933594,9.12577177 4.59778338,9.02295991 4.40615775,9.14187243 C4.36617444,9.16668392 4.34376666,9.17467867 4.33507843,9.17467867 C4.1224946,9.17467867 3.83661092,8.60131191 3.83661092,7.84134533 C3.83661092,7.66504339 3.80044398,7.53172171 3.72037964,7.33123272 C3.66897864,7.20251955 3.65991928,7.17713694 3.65377672,7.14220971 C3.67236207,7.05665317 3.67562278,6.99527376 3.66267682,6.9363142 C3.63223891,6.79769143 3.62721981,6.60686201 3.64153496,6.31562293 C3.64404797,6.26449614 3.64623102,6.22550802 3.65156521,6.13434224 C3.66627832,5.88396611 3.67045508,5.79411872 3.67045508,5.67467867 C3.67045508,2.91804418 6.05263808,0.674678667 8.904364,0.674678667 C11.7911455,0.674678667 14.3044288,2.94878263 14.3044288,5.67467867 C14.3044288,6.01412062 14.2600907,6.36078086 14.1725154,6.76286596 L14.1725154,6.76286596 Z" id="Stroke-16" fill-rule="nonzero"></path>
                <path d="M16.6814872,19.3533338 L16.6814872,18.7952791 C16.6814872,17.0864125 15.4598959,15.1891137 13.997522,14.6614833 L12.1128669,13.9818481 L12.8164984,13.799748 C11.7058067,15.0558137 10.2682796,15.7646813 8.74095407,15.7646813 C7.21389327,15.7646813 5.77574787,15.0555088 4.66586456,13.7995994 L5.36956722,13.9818698 L3.48448756,14.6614467 C2.07688257,15.1693163 0.989179533,17.0144223 0.989179533,18.7952791 L0.989179533,19.3533338 L0.662256456,19.3533338 L0.335333379,19.3533338 L0.335333379,18.7952791 C0.335333379,18.7591553 0.335736405,18.7229474 0.336538848,18.6866671 L17.3339342,18.6866671 C17.334865,18.7229474 17.3353334,18.7591553 17.3353334,18.7952791 L17.3353334,19.3533338 L17.0084103,19.3533338 L16.6814872,19.3533338 L16.6814872,19.3533338 Z M14.2155403,14.032969 C15.9829541,14.670659 17.3353334,16.8542456 17.3353334,18.7952791 L17.3353334,19.3533338 L0.335333379,19.3533338 L0.335333379,18.7952791 C0.335333379,16.8542456 1.49895407,14.670659 3.26636786,14.032969 L5.15160924,13.3533338 C6.12236786,14.451814 7.38154028,15.0980146 8.74095407,15.0980146 C10.1009541,15.0980146 11.3595403,14.451814 12.3308851,13.3533338 L14.2155403,14.032969 L14.2155403,14.032969 Z" id="Stroke-18" fill-rule="nonzero"></path>
                <ellipse id="Oval-3" cx="7.01200027" cy="8.01200027" rx="0.66766669" ry="0.66766669"></ellipse>
                <ellipse id="Oval-3-Copy" cx="11.0180004" cy="8.01200027" rx="0.66766669" ry="0.66766669"></ellipse>
                <path d="M4.67516686,7.35234559 C4.85622292,7.35234559 5.00427629,7.20801944 5.00889172,7.02702222 C5.01092027,6.94747146 5.01681774,6.80548583 5.02835056,6.62218279 C5.04756244,6.31682833 5.07588995,6.01173941 5.11487391,5.72873423 C5.20027574,5.10875724 5.3549849,4.68167883 5.34283355,4.68167883 C5.40714658,4.68167883 5.37900601,4.67996457 5.70734043,4.70207393 C6.08474282,4.72748742 6.34534242,4.73294539 6.62562937,4.70947257 C7.67987486,4.62118405 8.34733365,4.10326959 8.34733365,3.0125121 L7.67966696,3.0125121 C7.67966696,4.22969271 10.3272007,6.01701221 12.6871671,6.01701221 L12.3533338,5.68317886 C12.3533338,6.08042139 12.5023746,6.46002836 12.7460017,6.81401855 C12.8876532,7.01983817 13.0295783,7.17429992 13.1306922,7.26590917 C13.1920915,7.32153696 13.2719826,7.35234559 13.3548338,7.35234559 L14.3563339,7.35234559 C14.5407049,7.35234559 14.6901672,7.20288331 14.6901672,7.01851224 C14.6901672,6.83414118 14.5407049,6.6846789 14.3563339,6.6846789 L13.3548338,6.6846789 L13.5789754,6.77111532 C13.5131727,6.71149806 13.4047228,6.59346834 13.2959992,6.43549307 C13.1223347,6.18315845 13.0210005,5.92506027 13.0210005,5.68317886 C13.0210005,5.4988078 12.8715382,5.34934552 12.6871671,5.34934552 C10.6531195,5.34934552 8.34733365,3.79273608 8.34733365,3.0125121 C8.34733365,2.56740098 7.67966696,2.56740098 7.67966696,3.0125121 C7.67966696,3.69899683 7.31532244,3.98170986 6.56991021,4.04413492 C6.33135392,4.06411298 6.09852205,4.05923658 5.75219814,4.03591584 C5.38924962,4.01147565 5.43088772,4.01401214 5.34283355,4.01401214 C4.8060631,4.01401214 4.59797887,4.58843376 4.45345298,5.6376235 C4.41196225,5.93882666 4.38217146,6.25967526 4.36200144,6.58025833 C4.34990511,6.7725178 4.34366983,6.92263635 4.341442,7.01000226 L4.67516686,6.6846789 L3.67366683,6.6846789 C3.48929576,6.6846789 3.33983348,6.83414118 3.33983348,7.01851224 C3.33983348,7.20288331 3.48929576,7.35234559 3.67366683,7.35234559 L4.67516686,7.35234559 Z" id="Stroke-5" fill-rule="nonzero"></path>
            </g>
        </g>
    </g>
</svg>