<?xml version="1.0" encoding="UTF-8" standalone="no"?>
<svg width="17px" height="12px" viewBox="0 0 17 12" version="1.1" xmlns="http://www.w3.org/2000/svg" xmlns:xlink="http://www.w3.org/1999/xlink" xmlns:sketch="http://www.bohemiancoding.com/sketch/ns">
    <!-- Generator: Sketch 3.3.2 (12043) - http://www.bohemiancoding.com/sketch -->
    <title>view</title>
    <desc>Created with Sketch.</desc>
    <defs></defs>
    <g id="Page-1" stroke="none" stroke-width="1" fill="none" fill-rule="evenodd" sketch:type="MSPage">
        <g id="view" sketch:type="MSArtboardGroup" fill="#1D2D3C">
            <g id="eye" sketch:type="MSLayerGroup" transform="translate(0.000000, 1.000000)">
                <path d="M16.49,5.14292308 C16.3908333,4.93307692 13.9995,0 8.5,0 C3.0005,0 0.609166667,4.93307692 0.51,5.14292308 L0.431611111,5.30792308 L0.51,5.47207692 C0.609166667,5.68192308 3.0005,10.615 8.5,10.615 C13.9995,10.615 16.3908333,5.68192308 16.49,5.47207692 L16.5683889,5.30792308 L16.49,5.14292308 L16.49,5.14292308 Z M8.5,9.76884615 C4.16405556,9.76884615 1.91911111,6.13207692 1.46577778,5.30707692 C1.91722222,4.48123077 4.15272222,0.846153846 8.5,0.846153846 C12.8359444,0.846153846 15.0808889,4.48292308 15.5342222,5.30792308 C15.0827778,6.13376923 12.8472778,9.76884615 8.5,9.76884615 L8.5,9.76884615 Z" id="Fill-1" sketch:type="MSShapeGroup"></path>
                <path d="M8.5,2.76946154 C6.93788889,2.76946154 5.66666667,3.90753846 5.66666667,5.30792308 C5.66666667,6.70746154 6.93788889,7.84638462 8.5,7.84638462 C10.0621111,7.84638462 11.3333333,6.70746154 11.3333333,5.30792308 C11.3333333,3.90753846 10.0621111,2.76946154 8.5,2.76946154 L8.5,2.76946154 Z M8.5,7.00023077 C7.45827778,7.00023077 6.61111111,6.24038462 6.61111111,5.30792308 C6.61111111,4.37376923 7.45827778,3.61561538 8.5,3.61561538 C9.54172222,3.61561538 10.3888889,4.37376923 10.3888889,5.30792308 C10.3888889,6.24038462 9.54172222,7.00023077 8.5,7.00023077 L8.5,7.00023077 Z" id="Fill-2" sketch:type="MSShapeGroup"></path>
            </g>
        </g>
    </g>
</svg>