<?xml version="1.0" encoding="UTF-8" standalone="no"?>
<svg width="17px" height="13px" viewBox="0 0 17 13" version="1.1" xmlns="http://www.w3.org/2000/svg" xmlns:xlink="http://www.w3.org/1999/xlink">
    <!-- Generator: Sketch 3.7.2 (28276) - http://www.bohemiancoding.com/sketch -->
    <title>Fill 1</title>
    <desc>Created with Sketch.</desc>
    <defs></defs>
    <g id="Page-1" stroke="none" stroke-width="1" fill="none" fill-rule="evenodd">
        <g id="Products-selected-017" transform="translate(-1416.000000, -316.000000)" fill="#2B5672">
            <path d="M1424.5,324.5722 C1423.403,324.5722 1422.51,323.6422 1422.51,322.5002 C1422.51,321.3572 1423.403,320.4272 1424.5,320.4272 C1425.597,320.4272 1426.49,321.3572 1426.49,322.5002 C1426.49,323.6422 1425.597,324.5722 1424.5,324.5722 L1424.5,324.5722 Z M1424.5,319.3912 C1422.854,319.3912 1421.515,320.7852 1421.515,322.5002 C1421.515,324.2142 1422.854,325.6082 1424.5,325.6082 C1426.146,325.6082 1427.485,324.2142 1427.485,322.5002 C1427.485,320.7852 1426.146,319.3912 1424.5,319.3912 L1424.5,319.3912 Z M1424.5,327.9642 C1419.932,327.9642 1417.567,323.5092 1417.089,322.4992 C1417.565,321.4882 1419.92,317.0362 1424.5,317.0362 C1429.068,317.0362 1431.433,321.4902 1431.911,322.5002 C1431.435,323.5122 1429.08,327.9642 1424.5,327.9642 L1424.5,327.9642 Z M1432.918,322.2982 C1432.813,322.0412 1430.293,316.0002 1424.5,316.0002 C1418.707,316.0002 1416.187,322.0412 1416.082,322.2982 L1416,322.5002 L1416.082,322.7012 C1416.187,322.9582 1418.707,329.0002 1424.5,329.0002 C1430.293,329.0002 1432.813,322.9582 1432.918,322.7012 L1433,322.5002 L1432.918,322.2982 Z" id="Fill-1"></path>
        </g>
    </g>
</svg>