<?xml version="1.0" encoding="UTF-8" standalone="no"?>
<svg width="17px" height="15px" viewBox="0 0 17 15" version="1.1" xmlns="http://www.w3.org/2000/svg" xmlns:xlink="http://www.w3.org/1999/xlink">
    <!-- Generator: Sketch 3.7.2 (28276) - http://www.bohemiancoding.com/sketch -->
    <title>Fill 1</title>
    <desc>Created with Sketch.</desc>
    <defs></defs>
    <g id="Page-1" stroke="none" stroke-width="1" fill="none" fill-rule="evenodd">
        <g id="Products-selected-017" transform="translate(-1416.000000, -352.000000)" fill="#2B5672">
            <path d="M1429.031,363.031 L1426.987,360.987 C1427.3,360.495 1427.485,359.906 1427.485,359.273 C1427.485,357.559 1426.146,356.164 1424.5,356.164 C1423.849,356.164 1423.25,356.389 1422.759,356.759 L1420.864,354.864 C1421.868,354.24 1423.076,353.809 1424.5,353.809 C1429.069,353.809 1431.434,358.263 1431.911,359.273 C1431.631,359.87 1430.69,361.66 1429.031,363.031 L1429.031,363.031 Z M1423.495,357.495 C1423.791,357.312 1424.132,357.2 1424.5,357.2 C1425.598,357.2 1426.49,358.13 1426.49,359.273 C1426.49,359.627 1426.397,359.955 1426.246,360.246 L1423.495,357.495 Z M1425.816,360.816 C1425.464,361.141 1425.007,361.345 1424.5,361.345 C1423.403,361.345 1422.51,360.416 1422.51,359.273 C1422.51,358.776 1422.686,358.325 1422.967,357.967 L1425.816,360.816 Z M1424.5,364.737 C1419.932,364.737 1417.567,360.283 1417.09,359.272 C1417.387,358.64 1418.419,356.663 1420.27,355.27 L1422.251,357.251 C1421.799,357.796 1421.515,358.497 1421.515,359.273 C1421.515,360.987 1422.854,362.382 1424.5,362.382 C1425.288,362.382 1426.001,362.056 1426.535,361.535 L1428.461,363.461 C1427.395,364.2 1426.084,364.737 1424.5,364.737 L1424.5,364.737 Z M1433,359.273 L1432.918,359.071 C1432.814,358.814 1430.294,352.773 1424.5,352.773 C1422.744,352.773 1421.292,353.332 1420.114,354.114 L1418,352 L1417.5,352.5 L1419.535,354.535 C1417.229,356.34 1416.15,358.905 1416.082,359.071 L1416,359.273 L1416.082,359.475 C1416.187,359.732 1418.707,365.773 1424.5,365.773 C1426.421,365.773 1427.975,365.104 1429.207,364.207 L1431.5,366.5 L1432,366 L1429.769,363.769 C1431.868,361.985 1432.854,359.633 1432.918,359.475 L1433,359.273 Z" id="Fill-1"></path>
        </g>
    </g>
</svg>