<svg xmlns="http://www.w3.org/2000/svg" width="15" height="16"
     viewBox="0 0 15 16">
  <g fill-rule="evenodd">
    <path
        d="M0 8.421h2.5V7.58H0zM6.667 3.368H7.5V.842h-.833zM1.858 3.43l1.325 1.338.59-.595-1.326-1.34zM11.492 3.43l-.59-.596-1.324 1.339.589.595zM13.69 14.405c-.471.478-1.295.478-1.768 0l-4.77-4.824 1.791-1.81 4.77 4.825c.488.493.488 1.294-.022 1.81zM6.76 5.563l1.594 1.613-1.79 1.81L4.97 7.373l1.79-1.811zM14.303 12L6.76 4.37 3.79 7.374l7.542 7.627a2.06 2.06 0 0 0 1.473.617c.557 0 1.08-.22 1.497-.641a2.123 2.123 0 0 0 0-2.976z" />
  </g>
</svg>
