<svg xmlns="http://www.w3.org/2000/svg" width="24" height="24" viewBox="0 0 24 24">
    <path d="M11.7323367,11.688991 C11.8752506,11.1536627 11.9806128,10.7645814 12.0325844,10.5828112 C12.1019303,10.3402483 12.4874306,9.14535387 13.240212,6.83013211 C14.4360839,3.15222126 14.4504688,3.10791305 14.453815,3.09119126 C14.5093273,2.81828368 14.7469752,2.65 15.03341,2.65 L16.5434048,2.65 L16.5434048,3 L16.5434048,2.65 C16.9899248,2.65 17.1512061,3.01818194 17.0262953,3.36830756 C17.0360396,3.34097405 15.5785375,7.31526775 14.809071,9.41876885 C13.8644583,12.001156 13.1825053,13.874114 12.8385139,14.8342486 L12.8385139,20.6816313 C12.8385139,20.9729896 12.6279285,21.2054688 12.3369574,21.2054688 L10.9406879,21.2054688 C10.6265436,21.2054688 10.4390154,20.9756602 10.4390154,20.6816313 L10.4390154,14.7933848 C10.0723482,13.868392 9.51334765,12.4175683 8.7955886,10.5338301 C8.77584413,10.4820086 8.77584413,10.4820086 8.75610185,10.4301819 C8.12288662,8.76780149 6.6980134,5.00197127 6.69682969,4.99945699 C6.53659839,4.6614129 6.79960481,4.24308403 7.1922754,4.24308403 L8.66652799,4.24308403 C9.02678387,4.24308403 9.2012449,4.45055789 9.28121939,4.75465062 C9.29995094,4.82591196 9.55793914,5.55877228 10.3109836,7.68563762 C10.9895423,9.60213071 11.2596586,10.3698314 11.3333107,10.5986519 L11.7323367,11.688991 Z"/>
</svg>
